<?xml version="1.0" encoding="UTF-8"?>
<!DOCTYPE svg PUBLIC "-//W3C//DTD SVG 1.1//EN" "http://www.w3.org/Graphics/SVG/1.1/DTD/svg11.dtd">
<!-- Creator: CorelDRAW 2017 -->
<svg xmlns="http://www.w3.org/2000/svg" xml:space="preserve" width="2.89488in" height="3.62717in" version="1.1" style="shape-rendering:geometricPrecision; text-rendering:geometricPrecision; image-rendering:optimizeQuality; fill-rule:evenodd; clip-rule:evenodd"
viewBox="0 0 121.97 152.83"
 xmlns:xlink="http://www.w3.org/1999/xlink">
 <defs>
  <style type="text/css">
   <![CDATA[
    .fil5 {fill:#8EEEF5}
    .fil10 {fill:#BCECFF}
    .fil8 {fill:#F8EFD1;fill-rule:nonzero}
    .fil7 {fill:#0776FB;fill-rule:nonzero}
    .fil6 {fill:#3936DA;fill-rule:nonzero}
    .fil9 {fill:#BCECFF;fill-rule:nonzero}
    .fil4 {fill:#C3D1D4;fill-rule:nonzero}
    .fil3 {fill:#E4EAF2;fill-rule:nonzero}
    .fil2 {fill:#F7FBFF;fill-rule:nonzero}
    .fil0 {fill:aqua;fill-rule:nonzero;fill-opacity:0.050980}
    .fil1 {fill:#54F2F2;fill-rule:nonzero;fill-opacity:0.109804}
   ]]>
  </style>
    <mask id="id0">
  <linearGradient id="id1" gradientUnits="userSpaceOnUse" x1="61.46" y1="85.28" x2="61.47" y2="20.18">
   <stop offset="0" style="stop-opacity:1; stop-color:white"/>
   <stop offset="1" style="stop-opacity:0; stop-color:white"/>
  </linearGradient>
     <rect style="fill:url(#id1)" x="40.72" y="-0.15" width="40.53" height="90.12"/>
    </mask>
 </defs>
 <g id="Layer_x0020_1">
  <metadata id="CorelCorpID_0Corel-Layer"/>
  <g id="_2473960543568">
   <g>
    <polygon class="fil0" points="-0,117.63 61.06,82.46 121.97,117.63 60.99,152.83 "/>
    <polygon class="fil1" points="-0,108.4 61.06,73.23 121.97,108.4 60.99,143.6 "/>
   </g>
   <g>
    <polygon class="fil2" points="-0,89.55 61.06,54.39 121.97,89.55 60.99,124.75 "/>
    <polygon class="fil3" points="-0,89.55 -0,98.36 61.03,133.59 121.97,98.36 121.97,89.55 60.99,124.75 "/>
    <polygon class="fil4" points="60.99,124.75 61.03,133.59 121.97,98.36 121.97,89.55 "/>
   </g>
   <polygon class="fil5" style="mask:url(#id0)" points="40.87,89.83 81.11,89.83 81.11,0 40.87,0 "/>
   <g>
    <g>
     <g>
      <g>
       <g>
        <path class="fil6" d="M75.63 95.34c-0.11,0.07 -0.23,0.13 -0.34,0.19 -0.04,0.02 -0.08,0.04 -0.12,0.06 -0.08,0.04 -0.16,0.08 -0.23,0.13 -0.05,0.02 -0.1,0.05 -0.14,0.07 -0.07,0.04 -0.14,0.07 -0.21,0.11 -0.05,0.03 -0.1,0.05 -0.15,0.08 -0.07,0.03 -0.14,0.07 -0.21,0.1 -0.05,0.03 -0.11,0.05 -0.16,0.07 -0.07,0.03 -0.14,0.06 -0.21,0.09 -0.06,0.02 -0.11,0.05 -0.17,0.07 -0.07,0.03 -0.14,0.06 -0.21,0.09 -0.06,0.02 -0.11,0.05 -0.17,0.07 -0.07,0.03 -0.14,0.06 -0.21,0.08 -0.06,0.02 -0.12,0.05 -0.18,0.07 -0.07,0.03 -0.14,0.05 -0.21,0.08 -0.06,0.02 -0.12,0.04 -0.18,0.07 -0.07,0.03 -0.14,0.05 -0.21,0.08 -0.06,0.02 -0.12,0.04 -0.18,0.06 -0.07,0.03 -0.14,0.05 -0.22,0.07 -0.06,0.02 -0.12,0.04 -0.18,0.06 -0.07,0.02 -0.15,0.05 -0.22,0.07 -0.06,0.02 -0.12,0.04 -0.18,0.06 -0.08,0.02 -0.15,0.05 -0.23,0.07 -0.06,0.02 -0.12,0.04 -0.18,0.05 -0.08,0.02 -0.15,0.04 -0.23,0.07 -0.06,0.02 -0.12,0.03 -0.18,0.05 -0.08,0.02 -0.16,0.04 -0.24,0.06 -0.06,0.01 -0.11,0.03 -0.17,0.04 -0.09,0.02 -0.17,0.04 -0.26,0.06 -0.05,0.01 -0.1,0.03 -0.16,0.04 -0.1,0.02 -0.21,0.05 -0.31,0.07 -0.04,0.01 -0.07,0.02 -0.11,0.03 -0.08,0.02 -0.16,0.03 -0.25,0.05 -0.06,0.01 -0.11,0.02 -0.17,0.04 -0.09,0.02 -0.18,0.03 -0.27,0.05 -0.05,0.01 -0.1,0.02 -0.15,0.03 -0.12,0.02 -0.23,0.04 -0.35,0.06 -0.02,0 -0.05,0.01 -0.07,0.01 -0.14,0.02 -0.28,0.05 -0.42,0.07 -0.13,0.02 -0.26,0.04 -0.39,0.06 -0.04,0.01 -0.08,0.01 -0.12,0.02 -0.09,0.01 -0.18,0.02 -0.27,0.04 -0.05,0.01 -0.09,0.01 -0.14,0.02 -0.09,0.01 -0.18,0.02 -0.27,0.03 -0.04,0 -0.09,0.01 -0.13,0.01 -0.05,0.01 -0.1,0.01 -0.14,0.02 -0.14,0.02 -0.28,0.03 -0.43,0.04 -0.05,0 -0.1,0.01 -0.15,0.01 -0.18,0.02 -0.36,0.03 -0.54,0.04 -0.02,0 -0.04,0 -0.05,0 -0.15,0.01 -0.3,0.02 -0.45,0.03 -0.05,0 -0.11,0.01 -0.16,0.01 -0.12,0.01 -0.24,0.01 -0.36,0.02 -0.06,0 -0.11,0 -0.17,0.01 -0.11,0 -0.23,0.01 -0.34,0.01 -0.05,0 -0.1,0 -0.15,0 -0.16,0 -0.32,0 -0.48,0 -0.02,0 -0.04,-0 -0.07,-0 -0.13,-0 -0.27,-0 -0.4,-0 -0.05,-0 -0.11,-0 -0.16,-0 -0.1,-0 -0.2,-0 -0.31,-0.01 -0.06,-0 -0.13,-0 -0.19,-0.01 -0.09,-0 -0.18,-0.01 -0.27,-0.01 -0.07,-0 -0.13,-0.01 -0.2,-0.01 -0.09,-0 -0.18,-0.01 -0.26,-0.01 -0.07,-0 -0.13,-0.01 -0.2,-0.01 -0.08,-0.01 -0.17,-0.01 -0.25,-0.02 -0.07,-0 -0.13,-0.01 -0.2,-0.02 -0.08,-0.01 -0.17,-0.01 -0.25,-0.02 -0.07,-0.01 -0.13,-0.01 -0.2,-0.02 -0.08,-0.01 -0.16,-0.02 -0.24,-0.02 -0.07,-0.01 -0.13,-0.01 -0.2,-0.02 -0.08,-0.01 -0.16,-0.02 -0.24,-0.03 -0.07,-0.01 -0.13,-0.02 -0.2,-0.02 -0.08,-0.01 -0.16,-0.02 -0.24,-0.03 -0.06,-0.01 -0.13,-0.02 -0.19,-0.03 -0.08,-0.01 -0.17,-0.02 -0.25,-0.04 -0.06,-0.01 -0.12,-0.02 -0.19,-0.03 -0.08,-0.01 -0.17,-0.03 -0.25,-0.04 -0.06,-0.01 -0.12,-0.02 -0.18,-0.03 -0.09,-0.02 -0.18,-0.03 -0.27,-0.05 -0.05,-0.01 -0.11,-0.02 -0.16,-0.03 -0.14,-0.03 -0.29,-0.05 -0.43,-0.08 -0.01,-0 -0.02,-0 -0.04,-0.01 -0.13,-0.03 -0.26,-0.05 -0.39,-0.08 -0.04,-0.01 -0.08,-0.02 -0.13,-0.03 -0.1,-0.02 -0.21,-0.05 -0.31,-0.07 -0.05,-0.01 -0.11,-0.03 -0.16,-0.04 -0.09,-0.02 -0.18,-0.04 -0.27,-0.07 -0.06,-0.01 -0.11,-0.03 -0.17,-0.04 -0.09,-0.02 -0.18,-0.05 -0.27,-0.07 -0.06,-0.02 -0.12,-0.03 -0.17,-0.05 -0.09,-0.02 -0.18,-0.05 -0.26,-0.08 -0.06,-0.02 -0.11,-0.03 -0.17,-0.05 -0.11,-0.03 -0.22,-0.07 -0.33,-0.1 -0.04,-0.01 -0.08,-0.03 -0.12,-0.04 -0.15,-0.05 -0.3,-0.1 -0.44,-0.15 -0.02,-0.01 -0.04,-0.02 -0.06,-0.02 -0.14,-0.05 -0.29,-0.1 -0.43,-0.15 -0.04,-0.02 -0.09,-0.03 -0.13,-0.05 -0.15,-0.06 -0.3,-0.11 -0.45,-0.17 -0.01,-0 -0.03,-0.01 -0.04,-0.01 -0.02,-0.01 -0.04,-0.02 -0.07,-0.03 -0.09,-0.04 -0.19,-0.08 -0.28,-0.12 -0.04,-0.02 -0.08,-0.03 -0.12,-0.05 -0.07,-0.03 -0.15,-0.06 -0.22,-0.1 -0.04,-0.02 -0.09,-0.04 -0.13,-0.06 -0.07,-0.03 -0.14,-0.06 -0.21,-0.1 -0.04,-0.02 -0.09,-0.04 -0.13,-0.06 -0.07,-0.03 -0.13,-0.06 -0.2,-0.1 -0.05,-0.02 -0.09,-0.05 -0.14,-0.07 -0.07,-0.03 -0.13,-0.07 -0.2,-0.1 -0.04,-0.02 -0.09,-0.04 -0.13,-0.07 -0.07,-0.04 -0.15,-0.08 -0.22,-0.12 -0.04,-0.02 -0.07,-0.04 -0.11,-0.06 -0.11,-0.06 -0.21,-0.12 -0.32,-0.18 -0.1,-0.06 -0.2,-0.12 -0.3,-0.18 -0.03,-0.02 -0.06,-0.04 -0.09,-0.05 -0.07,-0.04 -0.14,-0.09 -0.21,-0.13 -0.03,-0.02 -0.06,-0.04 -0.09,-0.06 -0.08,-0.05 -0.16,-0.11 -0.24,-0.16 -0.01,-0.01 -0.03,-0.02 -0.04,-0.03 -0.09,-0.06 -0.18,-0.12 -0.27,-0.19 -0.03,-0.02 -0.05,-0.04 -0.07,-0.05 -0.06,-0.05 -0.13,-0.09 -0.19,-0.14 -0.03,-0.02 -0.06,-0.04 -0.08,-0.06 -0.06,-0.05 -0.13,-0.1 -0.19,-0.14 -0.02,-0.02 -0.04,-0.03 -0.06,-0.05 -0.08,-0.06 -0.16,-0.13 -0.24,-0.19 -0.02,-0.01 -0.03,-0.03 -0.05,-0.04 -0.06,-0.05 -0.12,-0.11 -0.19,-0.16 -0.02,-0.02 -0.05,-0.04 -0.07,-0.06 -0.05,-0.05 -0.11,-0.1 -0.16,-0.14 -0.02,-0.02 -0.04,-0.04 -0.07,-0.06 -0.07,-0.07 -0.14,-0.13 -0.21,-0.2 -0,-0 -0,-0 -0,-0 -0.07,-0.07 -0.14,-0.14 -0.2,-0.21 -0.02,-0.02 -0.04,-0.04 -0.06,-0.06 -0.05,-0.05 -0.09,-0.1 -0.14,-0.15 -0.02,-0.02 -0.04,-0.05 -0.06,-0.07 -0.05,-0.06 -0.1,-0.11 -0.15,-0.17 -0.01,-0.01 -0.03,-0.03 -0.04,-0.04 -0.06,-0.07 -0.12,-0.14 -0.18,-0.21 -0.01,-0.01 -0.02,-0.02 -0.03,-0.04 -0.05,-0.06 -0.1,-0.12 -0.14,-0.18 -0.01,-0.01 -0.02,-0.03 -0.03,-0.04 -0.05,-0.07 -0.1,-0.14 -0.15,-0.21 -0.01,-0.02 -0.02,-0.03 -0.03,-0.05 -0.04,-0.06 -0.09,-0.13 -0.13,-0.19 -0.01,-0.01 -0.01,-0.02 -0.02,-0.03 -0.05,-0.07 -0.09,-0.14 -0.13,-0.21 -0.01,-0.02 -0.02,-0.03 -0.03,-0.05 -0.04,-0.07 -0.08,-0.14 -0.13,-0.22 -0,-0 -0,-0.01 -0.01,-0.01 -0.04,-0.07 -0.08,-0.14 -0.12,-0.22 -0.01,-0.03 -0.03,-0.05 -0.04,-0.08 -0.03,-0.05 -0.05,-0.1 -0.08,-0.15 -0.01,-0.03 -0.03,-0.06 -0.04,-0.09 -0.02,-0.05 -0.04,-0.1 -0.06,-0.14 -0.01,-0.03 -0.03,-0.06 -0.04,-0.09 -0.02,-0.05 -0.04,-0.1 -0.06,-0.15 -0.01,-0.02 -0.02,-0.04 -0.03,-0.07 -0.03,-0.07 -0.05,-0.15 -0.08,-0.22 -0,-0 -0,-0 -0,-0 -0.02,-0.07 -0.05,-0.15 -0.07,-0.22 -0.01,-0.02 -0.01,-0.04 -0.02,-0.07 -0.02,-0.06 -0.03,-0.12 -0.05,-0.18 -0,-0.01 -0.01,-0.03 -0.01,-0.04 -0.02,-0.07 -0.03,-0.15 -0.05,-0.22 -0,-0.02 -0.01,-0.03 -0.01,-0.05 -0.01,-0.06 -0.02,-0.13 -0.04,-0.19 -0,-0.01 -0,-0.03 -0.01,-0.04 -0.01,-0.07 -0.02,-0.15 -0.03,-0.22 -0,-0.02 -0,-0.03 -0.01,-0.05 -0.01,-0.07 -0.02,-0.15 -0.02,-0.22 -0,-0.01 -0,-0.01 -0,-0.02 -0.01,-0.07 -0.01,-0.13 -0.01,-0.2 -0,-0.02 -0,-0.04 -0,-0.06 -0,-0.08 -0,-0.15 -0,-0.23l-0.01 5.05c-0,0.08 0,0.15 0,0.23 0,0.02 0,0.04 0,0.06 0,0.02 0,0.05 0,0.07 0,0.04 0.01,0.09 0.01,0.13 0,0.01 0,0.01 0,0.02 0.01,0.07 0.01,0.15 0.02,0.22 0,0.02 0,0.03 0.01,0.05 0.01,0.07 0.02,0.13 0.03,0.2 0,0.01 0,0.01 0,0.02 0,0.01 0,0.03 0.01,0.04 0.01,0.06 0.02,0.13 0.04,0.19 0,0.02 0.01,0.03 0.01,0.05 0.02,0.07 0.03,0.15 0.05,0.22 0,0.01 0.01,0.03 0.01,0.04 0.01,0.03 0.02,0.07 0.03,0.1 0.01,0.03 0.02,0.05 0.02,0.08 0.01,0.02 0.01,0.04 0.02,0.07 0.02,0.07 0.04,0.15 0.07,0.22 0,0 0,0 0,0 0.03,0.07 0.05,0.15 0.08,0.22 0.01,0.02 0.02,0.04 0.02,0.07 0.01,0.03 0.02,0.05 0.03,0.08 0.01,0.02 0.02,0.05 0.03,0.07 0.01,0.03 0.03,0.06 0.04,0.1 0.02,0.05 0.04,0.1 0.06,0.14 0.01,0.03 0.03,0.06 0.04,0.09 0.02,0.05 0.05,0.1 0.08,0.15 0.01,0.03 0.03,0.05 0.04,0.08 0.04,0.07 0.08,0.15 0.12,0.22 0,0 0,0.01 0.01,0.01 0,0 0,0 0,0 0.04,0.07 0.08,0.14 0.12,0.21 0.01,0.02 0.02,0.03 0.03,0.05 0.04,0.07 0.09,0.14 0.13,0.21 0.01,0.01 0.01,0.02 0.02,0.03 0.04,0.06 0.09,0.13 0.13,0.19 0.01,0.02 0.02,0.03 0.03,0.05 0.05,0.07 0.1,0.14 0.15,0.21 0.01,0.01 0.02,0.03 0.03,0.04 0.05,0.06 0.09,0.12 0.14,0.18 0.01,0.01 0.02,0.02 0.03,0.04 0.01,0.01 0.01,0.01 0.02,0.02 0.05,0.06 0.11,0.13 0.16,0.19 0.01,0.01 0.03,0.03 0.04,0.04 0.05,0.06 0.1,0.11 0.15,0.17 0.02,0.02 0.04,0.05 0.06,0.07 0.05,0.05 0.09,0.1 0.14,0.15 0.02,0.02 0.04,0.04 0.06,0.06 0.07,0.07 0.13,0.14 0.2,0.21 0,0 0,0 0,0 0.07,0.07 0.14,0.13 0.21,0.2 0.02,0.02 0.04,0.04 0.07,0.06 0.05,0.05 0.11,0.1 0.16,0.14 0.02,0.02 0.05,0.04 0.07,0.06 0.06,0.05 0.12,0.11 0.19,0.16 0.02,0.01 0.03,0.03 0.05,0.04 0.08,0.07 0.16,0.13 0.24,0.19 0.02,0.02 0.04,0.03 0.06,0.05 0.06,0.05 0.13,0.1 0.19,0.14 0.03,0.02 0.06,0.04 0.08,0.06 0.06,0.05 0.13,0.09 0.19,0.14 0.03,0.02 0.05,0.04 0.08,0.05 0.09,0.06 0.18,0.12 0.27,0.19 0.01,0.01 0.03,0.02 0.04,0.03 0.08,0.05 0.16,0.11 0.24,0.16 0.03,0.02 0.06,0.04 0.09,0.06 0.03,0.02 0.07,0.04 0.1,0.06 0.04,0.02 0.07,0.04 0.11,0.07 0.03,0.02 0.06,0.04 0.09,0.05 0.1,0.06 0.2,0.12 0.3,0.18 0.11,0.06 0.21,0.12 0.32,0.18 0.04,0.02 0.07,0.04 0.11,0.06 0.07,0.04 0.14,0.08 0.22,0.12 0.04,0.02 0.09,0.04 0.13,0.07 0.07,0.03 0.13,0.07 0.2,0.1 0.05,0.02 0.09,0.05 0.14,0.07 0.04,0.02 0.08,0.04 0.12,0.06 0.03,0.01 0.05,0.03 0.08,0.04 0.04,0.02 0.09,0.04 0.13,0.06 0.07,0.03 0.14,0.06 0.21,0.1 0.04,0.02 0.09,0.04 0.13,0.06 0.07,0.03 0.15,0.07 0.22,0.1 0.04,0.02 0.08,0.03 0.12,0.05 0.09,0.04 0.19,0.08 0.28,0.12 0.02,0.01 0.04,0.02 0.07,0.03 0,0 0.01,0 0.01,0 0.01,0 0.02,0.01 0.03,0.01 0.15,0.06 0.3,0.12 0.45,0.17 0.04,0.02 0.09,0.03 0.13,0.05 0.14,0.05 0.29,0.1 0.43,0.15 0.02,0.01 0.03,0.01 0.05,0.02 0,0 0.01,0 0.01,0 0.15,0.05 0.3,0.1 0.44,0.15 0.04,0.01 0.08,0.03 0.12,0.04 0.11,0.03 0.22,0.07 0.33,0.1 0.02,0.01 0.05,0.01 0.07,0.02 0.03,0.01 0.07,0.02 0.1,0.03 0.09,0.03 0.18,0.05 0.26,0.08 0.06,0.02 0.12,0.03 0.17,0.05 0.09,0.02 0.18,0.05 0.27,0.07 0.04,0.01 0.08,0.02 0.11,0.03 0.02,0 0.04,0.01 0.05,0.01 0.09,0.02 0.18,0.04 0.27,0.07 0.05,0.01 0.11,0.03 0.16,0.04 0.1,0.02 0.2,0.05 0.31,0.07 0.04,0.01 0.07,0.02 0.11,0.03 0,0 0.01,0 0.01,0 0.13,0.03 0.26,0.06 0.39,0.08 0.01,0 0.02,0.01 0.04,0.01 0.14,0.03 0.29,0.06 0.43,0.08 0,0 0.01,0 0.01,0 0.05,0.01 0.1,0.02 0.14,0.03 0.09,0.02 0.18,0.03 0.27,0.05 0.06,0.01 0.12,0.02 0.18,0.03 0.08,0.01 0.17,0.03 0.25,0.04 0.01,0 0.02,0 0.03,0.01 0.05,0.01 0.1,0.02 0.16,0.02 0.08,0.01 0.16,0.02 0.25,0.04 0.06,0.01 0.13,0.02 0.19,0.03 0.08,0.01 0.16,0.02 0.24,0.03 0.02,0 0.03,0 0.05,0.01 0.05,0.01 0.1,0.01 0.15,0.02 0.08,0.01 0.16,0.02 0.24,0.03 0.07,0.01 0.13,0.01 0.2,0.02 0.08,0.01 0.16,0.02 0.24,0.02 0.02,0 0.05,0.01 0.07,0.01 0.04,0 0.08,0.01 0.12,0.01 0.08,0.01 0.17,0.01 0.25,0.02 0.07,0.01 0.13,0.01 0.2,0.02 0.08,0.01 0.17,0.01 0.25,0.02 0.03,0 0.07,0 0.1,0.01 0.03,0 0.06,0 0.1,0.01 0.09,0.01 0.18,0.01 0.26,0.01 0.06,0 0.13,0.01 0.19,0.01 0.09,0 0.18,0.01 0.27,0.01 0.04,0 0.09,0 0.13,0.01 0.02,0 0.04,0 0.06,0 0.1,0 0.2,0.01 0.31,0.01 0.05,0 0.11,0 0.16,0 0.13,0 0.27,0 0.4,0 0.02,0 0.04,0 0.06,0 0,0 0,0 0,0 0.16,0 0.32,-0 0.48,-0 0.05,-0 0.1,-0 0.15,-0 0.11,-0 0.23,-0 0.34,-0.01 0.02,-0 0.05,-0 0.07,-0 0.03,-0 0.06,-0 0.1,-0 0.12,-0 0.24,-0.01 0.36,-0.02 0.05,-0 0.11,-0 0.16,-0.01 0.15,-0.01 0.3,-0.02 0.45,-0.03 0.02,-0 0.03,-0 0.05,-0 0,-0 0,-0 0.01,-0 0.18,-0.01 0.36,-0.03 0.54,-0.04 0.05,-0 0.1,-0.01 0.15,-0.01 0.14,-0.01 0.29,-0.03 0.43,-0.04 0.03,-0 0.06,-0.01 0.09,-0.01 0.02,-0 0.04,-0 0.06,-0.01 0.04,-0 0.09,-0.01 0.13,-0.01 0.09,-0.01 0.18,-0.02 0.27,-0.03 0.05,-0.01 0.09,-0.01 0.14,-0.02 0.09,-0.01 0.18,-0.02 0.27,-0.04 0.04,-0.01 0.08,-0.01 0.12,-0.02 0.13,-0.02 0.26,-0.04 0.39,-0.06 0,-0 0,-0 0,-0 0.14,-0.02 0.28,-0.05 0.42,-0.07 0.02,-0 0.05,-0.01 0.07,-0.01 0.12,-0.02 0.23,-0.04 0.35,-0.06 0.05,-0.01 0.1,-0.02 0.15,-0.03 0.09,-0.02 0.18,-0.03 0.27,-0.05 0.06,-0.01 0.11,-0.02 0.17,-0.04 0.08,-0.02 0.16,-0.03 0.25,-0.05 0,-0 0,-0 0.01,-0 0.04,-0.01 0.07,-0.02 0.11,-0.02 0.1,-0.02 0.21,-0.05 0.31,-0.07 0.05,-0.01 0.1,-0.03 0.16,-0.04 0.09,-0.02 0.17,-0.04 0.26,-0.06 0.06,-0.01 0.11,-0.03 0.17,-0.04 0.08,-0.02 0.16,-0.04 0.24,-0.06 0.06,-0.02 0.12,-0.03 0.18,-0.05 0.08,-0.02 0.16,-0.04 0.23,-0.07 0.06,-0.02 0.12,-0.04 0.18,-0.05 0.08,-0.02 0.15,-0.04 0.23,-0.07 0.06,-0.02 0.12,-0.04 0.18,-0.06 0.07,-0.02 0.15,-0.05 0.22,-0.07 0.06,-0.02 0.12,-0.04 0.18,-0.06 0.07,-0.02 0.14,-0.05 0.22,-0.07 0.06,-0.02 0.12,-0.04 0.18,-0.06 0.07,-0.03 0.14,-0.05 0.21,-0.08 0.06,-0.02 0.12,-0.04 0.18,-0.07 0.07,-0.03 0.14,-0.05 0.21,-0.08 0.06,-0.02 0.12,-0.05 0.18,-0.07 0.07,-0.03 0.14,-0.06 0.21,-0.09 0.06,-0.02 0.11,-0.05 0.17,-0.07 0.07,-0.03 0.14,-0.06 0.21,-0.09 0.06,-0.02 0.11,-0.05 0.17,-0.07 0.07,-0.03 0.14,-0.06 0.21,-0.09 0.05,-0.02 0.11,-0.05 0.16,-0.07 0.07,-0.03 0.14,-0.07 0.21,-0.1 0.05,-0.02 0.1,-0.05 0.15,-0.07 0.07,-0.04 0.14,-0.07 0.22,-0.11 0.05,-0.02 0.1,-0.05 0.14,-0.07 0.08,-0.04 0.16,-0.08 0.23,-0.13 0.04,-0.02 0.08,-0.04 0.12,-0.06 0.12,-0.06 0.23,-0.13 0.34,-0.19 3.5,-2.03 5.25,-4.7 5.26,-7.36l0.01 -5.05c-0.01,2.67 -1.76,5.33 -5.26,7.36z"/>
       </g>
       <g>
        <path class="fil7" d="M75.55 80.51c7.09,4.1 7.13,10.74 0.08,14.83 -7.05,4.1 -18.51,4.1 -25.6,0 -7.09,-4.1 -7.13,-10.74 -0.08,-14.83 7.05,-4.1 18.51,-4.1 25.6,-0z"/>
       </g>
       <path class="fil8" d="M73.25 81.85c-2.81,-1.62 -6.55,-2.52 -10.51,-2.52 -3.97,0 -7.69,0.89 -10.48,2.52 -2.79,1.62 -4.33,3.78 -4.31,6.08 0.01,2.3 1.57,4.46 4.38,6.08 2.81,1.62 6.55,2.52 10.51,2.52 3.97,0 7.69,-0.89 10.48,-2.52 2.79,-1.62 4.33,-3.78 4.31,-6.08 -0.01,-2.3 -1.57,-4.46 -4.38,-6.08zm-0.61 11.77l0 0c-5.39,3.13 -14.2,3.13 -19.63,-0 -5.43,-3.14 -5.46,-8.24 -0.06,-11.37 5.4,-3.14 14.2,-3.14 19.63,-0 5.43,3.14 5.46,8.24 0.06,11.37z"/>
       <path class="fil8" d="M70.28 84.86l2.34 -1.36 -1.58 -0.91 -2.36 1.37c-2.52,-1.16 -5.26,-1.28 -7.17,-0.17 -2.38,1.38 -1.1,2.89 0.17,4.24l-3.57 2.08c-1.01,-0.79 -1.7,-1.89 -1.79,-3.08l-2.74 0.53c0.1,1.28 0.95,2.64 2.53,3.72l-2.5 1.45 1.58 0.91 2.52 -1.46c2.55,1.16 5.4,1.3 7.39,0.15 2.47,-1.41 1.13,-2.97 -0.15,-4.35l3.31 -1.92c0.68,0.56 1.33,1.33 1.72,2.23l2.74 -0.57c-0.33,-0.96 -1.18,-1.98 -2.42,-2.85zm-7.66 6.16l0 0c-0.75,0.44 -1.79,0.42 -2.92,-0.01l3.07 -1.79c0.52,0.7 0.69,1.31 -0.15,1.8zm1.27 -4.28l0 0c-0.49,-0.65 -0.6,-1.24 0.19,-1.69 0.68,-0.39 1.63,-0.34 2.62,0.06l-2.81 1.63z"/>
      </g>
      <g>
       <g>
        <path class="fil6" d="M75.98 89.11c-0.11,0.07 -0.23,0.13 -0.34,0.19 -0.04,0.02 -0.08,0.04 -0.12,0.06 -0.08,0.04 -0.16,0.08 -0.23,0.13 -0.05,0.02 -0.1,0.05 -0.14,0.07 -0.07,0.04 -0.14,0.07 -0.21,0.11 -0.05,0.03 -0.1,0.05 -0.15,0.08 -0.07,0.03 -0.14,0.07 -0.21,0.1 -0.05,0.03 -0.11,0.05 -0.16,0.07 -0.07,0.03 -0.14,0.06 -0.21,0.09 -0.06,0.02 -0.11,0.05 -0.17,0.07 -0.07,0.03 -0.14,0.06 -0.21,0.09 -0.06,0.02 -0.11,0.05 -0.17,0.07 -0.07,0.03 -0.14,0.06 -0.21,0.08 -0.06,0.02 -0.12,0.05 -0.18,0.07 -0.07,0.03 -0.14,0.05 -0.21,0.08 -0.06,0.02 -0.12,0.04 -0.18,0.07 -0.07,0.03 -0.14,0.05 -0.21,0.08 -0.06,0.02 -0.12,0.04 -0.18,0.06 -0.07,0.03 -0.14,0.05 -0.22,0.07 -0.06,0.02 -0.12,0.04 -0.18,0.06 -0.07,0.02 -0.15,0.05 -0.22,0.07 -0.06,0.02 -0.12,0.04 -0.18,0.06 -0.08,0.02 -0.15,0.05 -0.23,0.07 -0.06,0.02 -0.12,0.04 -0.18,0.05 -0.08,0.02 -0.15,0.04 -0.23,0.07 -0.06,0.02 -0.12,0.03 -0.18,0.05 -0.08,0.02 -0.16,0.04 -0.24,0.06 -0.06,0.01 -0.11,0.03 -0.17,0.04 -0.09,0.02 -0.17,0.04 -0.26,0.06 -0.05,0.01 -0.1,0.03 -0.16,0.04 -0.1,0.02 -0.21,0.05 -0.31,0.07 -0.04,0.01 -0.07,0.02 -0.11,0.03 -0.08,0.02 -0.16,0.04 -0.25,0.05 -0.06,0.01 -0.11,0.02 -0.17,0.04 -0.09,0.02 -0.18,0.03 -0.27,0.05 -0.05,0.01 -0.1,0.02 -0.15,0.03 -0.12,0.02 -0.23,0.04 -0.35,0.06 -0.02,0 -0.05,0.01 -0.07,0.01 -0.14,0.02 -0.28,0.05 -0.42,0.07 -0.13,0.02 -0.26,0.04 -0.39,0.06 -0.04,0.01 -0.08,0.01 -0.12,0.02 -0.09,0.01 -0.18,0.02 -0.27,0.04 -0.05,0.01 -0.09,0.01 -0.14,0.02 -0.09,0.01 -0.18,0.02 -0.27,0.03 -0.04,0 -0.09,0.01 -0.13,0.01 -0.05,0.01 -0.1,0.01 -0.14,0.02 -0.14,0.02 -0.28,0.03 -0.43,0.04 -0.05,0 -0.1,0.01 -0.15,0.01 -0.18,0.02 -0.36,0.03 -0.54,0.04 -0.02,0 -0.04,0 -0.05,0 -0.15,0.01 -0.3,0.02 -0.45,0.03 -0.05,0 -0.11,0.01 -0.16,0.01 -0.12,0.01 -0.24,0.01 -0.36,0.02 -0.06,0 -0.11,0 -0.17,0.01 -0.11,0 -0.23,0.01 -0.34,0.01 -0.05,0 -0.1,0 -0.15,0 -0.16,0 -0.32,0 -0.48,0 -0.02,0 -0.04,-0 -0.07,-0 -0.13,-0 -0.27,-0 -0.4,-0 -0.05,-0 -0.11,-0 -0.16,-0 -0.1,-0 -0.2,-0 -0.31,-0.01 -0.06,-0 -0.13,-0 -0.19,-0.01 -0.09,-0 -0.18,-0.01 -0.27,-0.01 -0.07,-0 -0.13,-0.01 -0.2,-0.01 -0.09,-0 -0.18,-0.01 -0.26,-0.01 -0.07,-0 -0.13,-0.01 -0.2,-0.01 -0.08,-0.01 -0.17,-0.01 -0.25,-0.02 -0.07,-0 -0.13,-0.01 -0.2,-0.02 -0.08,-0.01 -0.17,-0.01 -0.25,-0.02 -0.07,-0.01 -0.13,-0.01 -0.2,-0.02 -0.08,-0.01 -0.16,-0.02 -0.24,-0.02 -0.07,-0.01 -0.13,-0.01 -0.2,-0.02 -0.08,-0.01 -0.16,-0.02 -0.24,-0.03 -0.07,-0.01 -0.13,-0.02 -0.2,-0.02 -0.08,-0.01 -0.16,-0.02 -0.24,-0.03 -0.06,-0.01 -0.13,-0.02 -0.19,-0.03 -0.08,-0.01 -0.16,-0.02 -0.25,-0.04 -0.06,-0.01 -0.12,-0.02 -0.19,-0.03 -0.09,-0.01 -0.17,-0.03 -0.25,-0.04 -0.06,-0.01 -0.12,-0.02 -0.18,-0.03 -0.09,-0.02 -0.18,-0.03 -0.27,-0.05 -0.05,-0.01 -0.11,-0.02 -0.16,-0.03 -0.14,-0.03 -0.29,-0.05 -0.43,-0.08 -0.01,-0 -0.02,-0 -0.04,-0.01 -0.13,-0.03 -0.26,-0.05 -0.39,-0.08 -0.04,-0.01 -0.08,-0.02 -0.13,-0.03 -0.1,-0.02 -0.21,-0.05 -0.31,-0.07 -0.05,-0.01 -0.11,-0.03 -0.16,-0.04 -0.09,-0.02 -0.18,-0.04 -0.27,-0.07 -0.06,-0.01 -0.11,-0.03 -0.17,-0.04 -0.09,-0.02 -0.18,-0.05 -0.27,-0.07 -0.06,-0.02 -0.12,-0.03 -0.17,-0.05 -0.09,-0.02 -0.18,-0.05 -0.26,-0.08 -0.06,-0.02 -0.11,-0.03 -0.17,-0.05 -0.11,-0.03 -0.22,-0.07 -0.33,-0.1 -0.04,-0.01 -0.08,-0.03 -0.12,-0.04 -0.15,-0.05 -0.3,-0.1 -0.44,-0.15 -0.02,-0.01 -0.04,-0.02 -0.06,-0.02 -0.14,-0.05 -0.29,-0.1 -0.43,-0.15 -0.04,-0.02 -0.09,-0.03 -0.13,-0.05 -0.15,-0.06 -0.3,-0.11 -0.45,-0.17 -0.01,-0.01 -0.03,-0.01 -0.04,-0.02 -0.02,-0.01 -0.04,-0.02 -0.07,-0.03 -0.09,-0.04 -0.19,-0.08 -0.28,-0.12 -0.04,-0.02 -0.08,-0.03 -0.12,-0.05 -0.07,-0.03 -0.15,-0.06 -0.22,-0.1 -0.04,-0.02 -0.09,-0.04 -0.13,-0.06 -0.07,-0.03 -0.14,-0.06 -0.21,-0.1 -0.04,-0.02 -0.09,-0.04 -0.13,-0.06 -0.07,-0.03 -0.13,-0.06 -0.2,-0.1 -0.05,-0.02 -0.09,-0.05 -0.14,-0.07 -0.07,-0.03 -0.13,-0.07 -0.2,-0.1 -0.04,-0.02 -0.09,-0.04 -0.13,-0.07 -0.07,-0.04 -0.15,-0.08 -0.22,-0.12 -0.04,-0.02 -0.07,-0.04 -0.11,-0.06 -0.11,-0.06 -0.21,-0.12 -0.32,-0.18 -0.1,-0.06 -0.2,-0.12 -0.3,-0.18 -0.03,-0.02 -0.06,-0.04 -0.09,-0.05 -0.07,-0.04 -0.14,-0.09 -0.21,-0.13 -0.03,-0.02 -0.06,-0.04 -0.09,-0.06 -0.08,-0.05 -0.16,-0.11 -0.24,-0.16 -0.01,-0.01 -0.03,-0.02 -0.04,-0.03 -0.09,-0.06 -0.18,-0.12 -0.27,-0.19 -0.03,-0.02 -0.05,-0.04 -0.07,-0.05 -0.06,-0.05 -0.13,-0.09 -0.19,-0.14 -0.03,-0.02 -0.06,-0.04 -0.08,-0.06 -0.06,-0.05 -0.13,-0.1 -0.19,-0.14 -0.02,-0.02 -0.04,-0.03 -0.06,-0.05 -0.08,-0.06 -0.16,-0.13 -0.24,-0.19 -0.02,-0.01 -0.03,-0.03 -0.05,-0.04 -0.06,-0.05 -0.12,-0.11 -0.19,-0.16 -0.02,-0.02 -0.05,-0.04 -0.07,-0.06 -0.05,-0.05 -0.11,-0.1 -0.16,-0.14 -0.02,-0.02 -0.04,-0.04 -0.07,-0.06 -0.07,-0.07 -0.14,-0.13 -0.21,-0.2 -0,-0 -0,-0 -0,-0 -0.07,-0.07 -0.14,-0.14 -0.2,-0.21 -0.02,-0.02 -0.04,-0.04 -0.06,-0.06 -0.05,-0.05 -0.09,-0.1 -0.14,-0.15 -0.02,-0.02 -0.04,-0.05 -0.06,-0.07 -0.05,-0.06 -0.1,-0.11 -0.15,-0.17 -0.01,-0.01 -0.03,-0.03 -0.04,-0.04 -0.06,-0.07 -0.12,-0.14 -0.18,-0.21 -0.01,-0.01 -0.02,-0.02 -0.03,-0.04 -0.05,-0.06 -0.1,-0.12 -0.14,-0.18 -0.01,-0.01 -0.02,-0.03 -0.03,-0.04 -0.05,-0.07 -0.1,-0.14 -0.15,-0.21 -0.01,-0.02 -0.02,-0.03 -0.03,-0.05 -0.04,-0.06 -0.09,-0.13 -0.13,-0.19 -0.01,-0.01 -0.01,-0.02 -0.02,-0.03 -0.05,-0.07 -0.09,-0.14 -0.13,-0.21 -0.01,-0.02 -0.02,-0.03 -0.03,-0.05 -0.04,-0.07 -0.08,-0.14 -0.13,-0.22 -0,-0 -0,-0.01 -0.01,-0.01 -0.04,-0.07 -0.08,-0.14 -0.12,-0.22 -0.01,-0.03 -0.03,-0.05 -0.04,-0.08 -0.03,-0.05 -0.05,-0.1 -0.08,-0.15 -0.01,-0.03 -0.03,-0.06 -0.04,-0.09 -0.02,-0.05 -0.04,-0.1 -0.06,-0.14 -0.01,-0.03 -0.03,-0.06 -0.04,-0.09 -0.02,-0.05 -0.04,-0.1 -0.06,-0.15 -0.01,-0.02 -0.02,-0.04 -0.02,-0.07 -0.03,-0.07 -0.05,-0.15 -0.08,-0.22 -0,-0 -0,-0 -0,-0 -0.02,-0.07 -0.05,-0.15 -0.07,-0.22 -0.01,-0.02 -0.01,-0.04 -0.02,-0.07 -0.02,-0.06 -0.03,-0.12 -0.05,-0.18 -0,-0.01 -0.01,-0.03 -0.01,-0.04 -0.02,-0.07 -0.03,-0.15 -0.05,-0.22 -0,-0.02 -0.01,-0.03 -0.01,-0.05 -0.01,-0.06 -0.02,-0.13 -0.04,-0.19 -0,-0.01 -0,-0.03 -0.01,-0.04 -0.01,-0.07 -0.02,-0.15 -0.03,-0.22 -0,-0.02 -0,-0.03 -0.01,-0.05 -0.01,-0.07 -0.02,-0.15 -0.02,-0.22 -0,-0.01 -0,-0.01 -0,-0.02 -0.01,-0.07 -0.01,-0.13 -0.01,-0.2 -0,-0.02 -0,-0.04 -0,-0.06 -0,-0.08 -0,-0.15 -0,-0.23l-0.01 5.05c-0,0.08 0,0.15 0,0.23 0,0.02 0,0.04 0,0.06 0,0.02 0,0.05 0,0.07 0,0.04 0.01,0.09 0.01,0.13 0,0.01 0,0.01 0,0.02 0.01,0.07 0.01,0.15 0.02,0.22 0,0.02 0,0.03 0.01,0.05 0.01,0.07 0.02,0.13 0.03,0.2 0,0.01 0,0.01 0,0.02 0,0.01 0,0.03 0.01,0.04 0.01,0.06 0.02,0.13 0.04,0.19 0,0.02 0.01,0.03 0.01,0.05 0.02,0.07 0.03,0.15 0.05,0.22 0,0.01 0.01,0.03 0.01,0.04 0.01,0.03 0.02,0.07 0.03,0.1 0.01,0.03 0.02,0.05 0.02,0.08 0.01,0.02 0.01,0.04 0.02,0.07 0.02,0.07 0.04,0.15 0.07,0.22 0,0 0,0 0,0 0.02,0.07 0.05,0.15 0.08,0.22 0.01,0.02 0.02,0.04 0.02,0.07 0.01,0.03 0.02,0.05 0.03,0.08 0.01,0.02 0.02,0.05 0.03,0.07 0.01,0.03 0.03,0.06 0.04,0.1 0.02,0.05 0.04,0.1 0.06,0.14 0.01,0.03 0.03,0.06 0.04,0.09 0.02,0.05 0.05,0.1 0.08,0.15 0.01,0.03 0.03,0.05 0.04,0.08 0.04,0.07 0.08,0.15 0.12,0.22 0,0 0,0.01 0.01,0.01 0,0 0,0 0,0 0.04,0.07 0.08,0.14 0.12,0.21 0.01,0.02 0.02,0.03 0.03,0.05 0.04,0.07 0.09,0.14 0.13,0.21 0.01,0.01 0.01,0.02 0.02,0.03 0.04,0.06 0.09,0.13 0.13,0.19 0.01,0.02 0.02,0.03 0.03,0.05 0.05,0.07 0.1,0.14 0.15,0.21 0.01,0.01 0.02,0.03 0.03,0.04 0.05,0.06 0.09,0.12 0.14,0.18 0.01,0.01 0.02,0.02 0.03,0.04 0.01,0.01 0.01,0.01 0.02,0.02 0.05,0.06 0.11,0.13 0.16,0.19 0.01,0.01 0.03,0.03 0.04,0.04 0.05,0.06 0.1,0.11 0.15,0.17 0.02,0.02 0.04,0.05 0.06,0.07 0.05,0.05 0.09,0.1 0.14,0.15 0.02,0.02 0.04,0.04 0.06,0.06 0.07,0.07 0.13,0.14 0.2,0.21 0,0 0,0 0,0 0.07,0.07 0.14,0.13 0.21,0.2 0.02,0.02 0.04,0.04 0.07,0.06 0.05,0.05 0.11,0.1 0.16,0.14 0.02,0.02 0.05,0.04 0.07,0.06 0.06,0.05 0.12,0.11 0.19,0.16 0.02,0.01 0.03,0.03 0.05,0.04 0.08,0.07 0.16,0.13 0.24,0.19 0.02,0.02 0.04,0.03 0.06,0.05 0.06,0.05 0.13,0.1 0.19,0.14 0.03,0.02 0.06,0.04 0.08,0.06 0.06,0.05 0.13,0.09 0.19,0.14 0.03,0.02 0.05,0.04 0.08,0.05 0.09,0.06 0.18,0.12 0.27,0.19 0.01,0.01 0.03,0.02 0.04,0.03 0.08,0.05 0.16,0.11 0.24,0.16 0.03,0.02 0.06,0.04 0.09,0.06 0.03,0.02 0.07,0.04 0.1,0.06 0.04,0.02 0.07,0.04 0.11,0.07 0.03,0.02 0.06,0.04 0.09,0.05 0.1,0.06 0.2,0.12 0.3,0.18 0.11,0.06 0.21,0.12 0.32,0.18 0.04,0.02 0.07,0.04 0.11,0.06 0.07,0.04 0.14,0.08 0.22,0.12 0.04,0.02 0.09,0.04 0.13,0.07 0.07,0.03 0.13,0.07 0.2,0.1 0.05,0.02 0.09,0.05 0.14,0.07 0.04,0.02 0.08,0.04 0.12,0.06 0.03,0.01 0.05,0.03 0.08,0.04 0.04,0.02 0.09,0.04 0.13,0.06 0.07,0.03 0.14,0.06 0.21,0.1 0.04,0.02 0.09,0.04 0.13,0.06 0.07,0.03 0.15,0.07 0.22,0.1 0.04,0.02 0.08,0.03 0.12,0.05 0.09,0.04 0.19,0.08 0.28,0.12 0.02,0.01 0.04,0.02 0.07,0.03 0,0 0.01,0 0.01,0 0.01,0 0.02,0.01 0.03,0.01 0.15,0.06 0.3,0.12 0.45,0.17 0.04,0.02 0.09,0.03 0.13,0.05 0.14,0.05 0.29,0.1 0.43,0.15 0.02,0.01 0.03,0.01 0.05,0.02 0,0 0.01,0 0.01,0 0.15,0.05 0.3,0.1 0.44,0.15 0.04,0.01 0.08,0.03 0.12,0.04 0.11,0.03 0.22,0.07 0.33,0.1 0.02,0.01 0.05,0.01 0.07,0.02 0.03,0.01 0.07,0.02 0.1,0.03 0.09,0.03 0.18,0.05 0.26,0.08 0.06,0.02 0.12,0.03 0.17,0.05 0.09,0.02 0.18,0.05 0.27,0.07 0.04,0.01 0.08,0.02 0.11,0.03 0.02,0 0.04,0.01 0.05,0.01 0.09,0.02 0.18,0.04 0.27,0.07 0.05,0.01 0.11,0.03 0.16,0.04 0.1,0.02 0.2,0.05 0.31,0.07 0.04,0.01 0.07,0.02 0.11,0.03 0,0 0.01,0 0.01,0 0.13,0.03 0.26,0.06 0.39,0.08 0.01,0 0.02,0 0.04,0.01 0.14,0.03 0.29,0.06 0.43,0.08 0,0 0.01,0 0.01,0 0.05,0.01 0.1,0.02 0.14,0.03 0.09,0.02 0.18,0.03 0.27,0.05 0.06,0.01 0.12,0.02 0.18,0.03 0.08,0.01 0.17,0.03 0.25,0.04 0.01,0 0.02,0 0.03,0.01 0.05,0.01 0.1,0.01 0.16,0.02 0.08,0.01 0.16,0.02 0.25,0.04 0.06,0.01 0.13,0.02 0.19,0.03 0.08,0.01 0.16,0.02 0.24,0.03 0.02,0 0.03,0 0.05,0.01 0.05,0.01 0.1,0.01 0.15,0.02 0.08,0.01 0.16,0.02 0.24,0.03 0.07,0.01 0.13,0.01 0.2,0.02 0.08,0.01 0.16,0.02 0.24,0.02 0.02,0 0.05,0.01 0.07,0.01 0.04,0 0.08,0.01 0.12,0.01 0.08,0.01 0.17,0.01 0.25,0.02 0.07,0.01 0.13,0.01 0.2,0.02 0.08,0.01 0.17,0.01 0.25,0.02 0.03,0 0.07,0 0.1,0.01 0.03,0 0.06,0 0.1,0.01 0.09,0.01 0.18,0.01 0.26,0.01 0.07,0 0.13,0.01 0.2,0.01 0.09,0 0.18,0.01 0.27,0.01 0.04,0 0.09,0 0.13,0.01 0.02,0 0.04,0 0.06,0 0.1,0 0.2,0.01 0.31,0.01 0.05,0 0.11,0 0.16,0 0.13,0 0.27,0 0.4,0 0.02,0 0.04,0 0.06,0 0,0 0,-0 0,-0 0.16,0 0.32,-0 0.48,-0 0.05,-0 0.1,-0 0.15,-0 0.11,-0 0.23,-0 0.34,-0.01 0.02,-0 0.05,-0 0.07,-0 0.03,-0 0.06,-0 0.1,-0 0.12,-0 0.24,-0.01 0.36,-0.02 0.05,-0 0.11,-0 0.16,-0.01 0.15,-0.01 0.3,-0.02 0.45,-0.03 0.02,-0 0.03,-0 0.05,-0 0,-0 0,-0 0.01,-0 0.18,-0.01 0.36,-0.03 0.54,-0.04 0.05,-0 0.1,-0.01 0.15,-0.01 0.14,-0.01 0.29,-0.03 0.43,-0.04 0.03,-0 0.06,-0.01 0.09,-0.01 0.02,-0 0.04,-0 0.06,-0.01 0.04,-0 0.09,-0.01 0.13,-0.01 0.09,-0.01 0.18,-0.02 0.27,-0.03 0.05,-0.01 0.09,-0.01 0.14,-0.02 0.09,-0.01 0.18,-0.02 0.27,-0.04 0.04,-0.01 0.08,-0.01 0.12,-0.02 0.13,-0.02 0.26,-0.04 0.39,-0.06 0,0 0,-0 0,-0 0.14,-0.02 0.28,-0.05 0.42,-0.07 0.02,-0 0.05,-0.01 0.07,-0.01 0.12,-0.02 0.23,-0.04 0.35,-0.06 0.05,-0.01 0.1,-0.02 0.15,-0.03 0.09,-0.02 0.18,-0.03 0.27,-0.05 0.06,-0.01 0.11,-0.02 0.17,-0.04 0.08,-0.02 0.16,-0.03 0.25,-0.05 0,-0 0,-0 0.01,-0 0.04,-0.01 0.07,-0.02 0.11,-0.02 0.1,-0.02 0.21,-0.05 0.31,-0.07 0.05,-0.01 0.1,-0.03 0.16,-0.04 0.09,-0.02 0.17,-0.04 0.26,-0.06 0.06,-0.01 0.11,-0.03 0.17,-0.04 0.08,-0.02 0.16,-0.04 0.24,-0.06 0.06,-0.02 0.12,-0.03 0.18,-0.05 0.08,-0.02 0.16,-0.04 0.23,-0.07 0.06,-0.02 0.12,-0.04 0.18,-0.05 0.08,-0.02 0.15,-0.05 0.23,-0.07 0.06,-0.02 0.12,-0.04 0.18,-0.06 0.07,-0.02 0.15,-0.05 0.22,-0.07 0.06,-0.02 0.12,-0.04 0.18,-0.06 0.07,-0.02 0.14,-0.05 0.22,-0.07 0.06,-0.02 0.12,-0.04 0.18,-0.06 0.07,-0.03 0.14,-0.05 0.21,-0.08 0.06,-0.02 0.12,-0.04 0.18,-0.07 0.07,-0.03 0.14,-0.05 0.21,-0.08 0.06,-0.02 0.12,-0.05 0.18,-0.07 0.07,-0.03 0.14,-0.06 0.21,-0.09 0.06,-0.02 0.11,-0.05 0.17,-0.07 0.07,-0.03 0.14,-0.06 0.21,-0.09 0.06,-0.02 0.11,-0.05 0.17,-0.07 0.07,-0.03 0.14,-0.06 0.21,-0.09 0.05,-0.02 0.11,-0.05 0.16,-0.07 0.07,-0.03 0.14,-0.07 0.21,-0.1 0.05,-0.03 0.1,-0.05 0.15,-0.07 0.07,-0.04 0.14,-0.07 0.22,-0.11 0.05,-0.02 0.1,-0.05 0.14,-0.07 0.08,-0.04 0.16,-0.08 0.23,-0.13 0.04,-0.02 0.08,-0.04 0.12,-0.06 0.12,-0.06 0.23,-0.13 0.34,-0.19 3.5,-2.03 5.25,-4.7 5.26,-7.36l0.01 -5.05c-0.01,2.67 -1.76,5.33 -5.26,7.36z"/>
       </g>
       <g>
        <path class="fil7" d="M75.9 74.28c7.09,4.1 7.13,10.74 0.08,14.83 -7.05,4.1 -18.51,4.1 -25.6,0 -7.09,-4.1 -7.13,-10.74 -0.08,-14.83 7.05,-4.1 18.51,-4.1 25.6,-0z"/>
       </g>
       <path class="fil9" d="M73.6 75.61c-2.81,-1.62 -6.55,-2.52 -10.51,-2.52 -3.97,0 -7.69,0.89 -10.48,2.52 -2.79,1.62 -4.33,3.78 -4.31,6.08 0.01,2.3 1.57,4.46 4.38,6.08 2.81,1.62 6.55,2.52 10.51,2.52 3.97,0 7.69,-0.89 10.48,-2.52 2.79,-1.62 4.33,-3.78 4.31,-6.08 -0.01,-2.3 -1.57,-4.46 -4.38,-6.08zm-0.61 11.77l0 0c-5.39,3.13 -14.2,3.13 -19.63,-0 -5.43,-3.14 -5.46,-8.24 -0.06,-11.37 5.4,-3.14 14.2,-3.14 19.63,-0 5.43,3.14 5.46,8.24 0.06,11.37z"/>
       <path class="fil8" d="M70.64 78.63l2.34 -1.36 -1.58 -0.91 -2.36 1.37c-2.52,-1.16 -5.26,-1.28 -7.17,-0.17 -2.38,1.38 -1.1,2.89 0.17,4.24l-3.57 2.08c-1.01,-0.79 -1.7,-1.89 -1.79,-3.08l-2.74 0.53c0.1,1.28 0.95,2.64 2.53,3.72l-2.5 1.45 1.58 0.91 2.52 -1.46c2.55,1.16 5.4,1.3 7.39,0.15 2.47,-1.41 1.13,-2.97 -0.15,-4.35l3.31 -1.92c0.68,0.56 1.33,1.33 1.72,2.23l2.74 -0.57c-0.33,-0.96 -1.18,-1.98 -2.42,-2.85zm-7.66 6.16l0 0c-0.75,0.44 -1.79,0.42 -2.92,-0.01l3.07 -1.79c0.52,0.7 0.69,1.31 -0.15,1.8zm1.27 -4.28l0 0c-0.49,-0.65 -0.6,-1.24 0.19,-1.69 0.68,-0.39 1.63,-0.34 2.62,0.06l-2.81 1.63z"/>
      </g>
      <g>
       <g>
        <path class="fil6" d="M75.98 81.25c-0.11,0.07 -0.23,0.13 -0.34,0.19 -0.04,0.02 -0.08,0.04 -0.12,0.06 -0.08,0.04 -0.16,0.08 -0.23,0.13 -0.05,0.02 -0.1,0.05 -0.14,0.07 -0.07,0.04 -0.14,0.07 -0.21,0.11 -0.05,0.03 -0.1,0.05 -0.15,0.08 -0.07,0.03 -0.14,0.07 -0.21,0.1 -0.05,0.03 -0.11,0.05 -0.16,0.07 -0.07,0.03 -0.14,0.06 -0.21,0.09 -0.06,0.02 -0.11,0.05 -0.17,0.07 -0.07,0.03 -0.14,0.06 -0.21,0.09 -0.06,0.02 -0.11,0.05 -0.17,0.07 -0.07,0.03 -0.14,0.06 -0.21,0.08 -0.06,0.02 -0.12,0.05 -0.18,0.07 -0.07,0.03 -0.14,0.05 -0.21,0.08 -0.06,0.02 -0.12,0.04 -0.18,0.07 -0.07,0.03 -0.14,0.05 -0.21,0.08 -0.06,0.02 -0.12,0.04 -0.18,0.06 -0.07,0.03 -0.14,0.05 -0.22,0.07 -0.06,0.02 -0.12,0.04 -0.18,0.06 -0.07,0.02 -0.15,0.05 -0.22,0.07 -0.06,0.02 -0.12,0.04 -0.18,0.06 -0.08,0.02 -0.15,0.05 -0.23,0.07 -0.06,0.02 -0.12,0.04 -0.18,0.05 -0.08,0.02 -0.15,0.04 -0.23,0.07 -0.06,0.02 -0.12,0.03 -0.18,0.05 -0.08,0.02 -0.16,0.04 -0.24,0.06 -0.06,0.01 -0.11,0.03 -0.17,0.04 -0.09,0.02 -0.17,0.04 -0.26,0.06 -0.05,0.01 -0.1,0.03 -0.16,0.04 -0.1,0.02 -0.21,0.05 -0.31,0.07 -0.04,0.01 -0.07,0.02 -0.11,0.03 -0.08,0.02 -0.16,0.03 -0.25,0.05 -0.06,0.01 -0.11,0.02 -0.17,0.04 -0.09,0.02 -0.18,0.03 -0.27,0.05 -0.05,0.01 -0.1,0.02 -0.15,0.03 -0.12,0.02 -0.23,0.04 -0.35,0.06 -0.02,0 -0.05,0.01 -0.07,0.01 -0.14,0.02 -0.28,0.05 -0.42,0.07 -0.13,0.02 -0.26,0.04 -0.39,0.06 -0.04,0.01 -0.08,0.01 -0.12,0.02 -0.09,0.01 -0.18,0.02 -0.27,0.04 -0.05,0.01 -0.09,0.01 -0.14,0.02 -0.09,0.01 -0.18,0.02 -0.27,0.03 -0.04,0 -0.09,0.01 -0.13,0.01 -0.05,0.01 -0.1,0.01 -0.14,0.02 -0.14,0.02 -0.28,0.03 -0.43,0.04 -0.05,0 -0.1,0.01 -0.15,0.01 -0.18,0.02 -0.36,0.03 -0.54,0.04 -0.02,0 -0.04,0 -0.05,0 -0.15,0.01 -0.3,0.02 -0.45,0.03 -0.05,0 -0.11,0.01 -0.16,0.01 -0.12,0.01 -0.24,0.01 -0.36,0.02 -0.06,0 -0.11,0 -0.17,0.01 -0.11,0 -0.23,0.01 -0.34,0.01 -0.05,0 -0.1,0 -0.15,0 -0.16,0 -0.32,0 -0.48,0 -0.02,0 -0.04,-0 -0.07,-0 -0.13,-0 -0.27,-0 -0.4,-0 -0.05,-0 -0.11,-0 -0.16,-0 -0.1,-0 -0.2,-0 -0.31,-0.01 -0.06,-0 -0.13,-0 -0.19,-0.01 -0.09,-0 -0.18,-0.01 -0.27,-0.01 -0.07,-0 -0.13,-0.01 -0.2,-0.01 -0.09,-0 -0.18,-0.01 -0.26,-0.01 -0.07,-0 -0.13,-0.01 -0.2,-0.01 -0.08,-0.01 -0.17,-0.01 -0.25,-0.02 -0.07,-0 -0.13,-0.01 -0.2,-0.02 -0.08,-0.01 -0.17,-0.01 -0.25,-0.02 -0.07,-0.01 -0.13,-0.01 -0.2,-0.02 -0.08,-0.01 -0.16,-0.02 -0.24,-0.02 -0.07,-0.01 -0.13,-0.01 -0.2,-0.02 -0.08,-0.01 -0.16,-0.02 -0.24,-0.03 -0.07,-0.01 -0.13,-0.02 -0.2,-0.02 -0.08,-0.01 -0.16,-0.02 -0.24,-0.03 -0.06,-0.01 -0.13,-0.02 -0.19,-0.03 -0.08,-0.01 -0.16,-0.02 -0.25,-0.04 -0.06,-0.01 -0.12,-0.02 -0.19,-0.03 -0.09,-0.01 -0.17,-0.03 -0.25,-0.04 -0.06,-0.01 -0.12,-0.02 -0.18,-0.03 -0.09,-0.02 -0.18,-0.03 -0.27,-0.05 -0.05,-0.01 -0.11,-0.02 -0.16,-0.03 -0.14,-0.03 -0.29,-0.05 -0.43,-0.08 -0.01,-0 -0.02,-0 -0.04,-0.01 -0.13,-0.03 -0.26,-0.05 -0.39,-0.08 -0.04,-0.01 -0.08,-0.02 -0.13,-0.03 -0.1,-0.02 -0.21,-0.05 -0.31,-0.07 -0.05,-0.01 -0.11,-0.03 -0.16,-0.04 -0.09,-0.02 -0.18,-0.04 -0.27,-0.07 -0.06,-0.01 -0.11,-0.03 -0.17,-0.04 -0.09,-0.02 -0.18,-0.05 -0.27,-0.07 -0.06,-0.02 -0.12,-0.03 -0.17,-0.05 -0.09,-0.02 -0.18,-0.05 -0.26,-0.08 -0.06,-0.02 -0.11,-0.03 -0.17,-0.05 -0.11,-0.03 -0.22,-0.07 -0.33,-0.1 -0.04,-0.01 -0.08,-0.03 -0.12,-0.04 -0.15,-0.05 -0.3,-0.1 -0.44,-0.15 -0.02,-0.01 -0.04,-0.02 -0.06,-0.02 -0.14,-0.05 -0.29,-0.1 -0.43,-0.15 -0.04,-0.02 -0.09,-0.03 -0.13,-0.05 -0.15,-0.06 -0.3,-0.11 -0.45,-0.17 -0.01,-0 -0.03,-0.01 -0.04,-0.01 -0.02,-0.01 -0.04,-0.02 -0.07,-0.03 -0.09,-0.04 -0.19,-0.08 -0.28,-0.12 -0.04,-0.02 -0.08,-0.03 -0.12,-0.05 -0.07,-0.03 -0.15,-0.06 -0.22,-0.1 -0.04,-0.02 -0.09,-0.04 -0.13,-0.06 -0.07,-0.03 -0.14,-0.06 -0.21,-0.1 -0.04,-0.02 -0.09,-0.04 -0.13,-0.06 -0.07,-0.03 -0.13,-0.06 -0.2,-0.1 -0.05,-0.02 -0.09,-0.05 -0.14,-0.07 -0.07,-0.03 -0.13,-0.07 -0.2,-0.1 -0.04,-0.02 -0.09,-0.04 -0.13,-0.07 -0.07,-0.04 -0.15,-0.08 -0.22,-0.12 -0.04,-0.02 -0.07,-0.04 -0.11,-0.06 -0.11,-0.06 -0.21,-0.12 -0.32,-0.18 -0.1,-0.06 -0.2,-0.12 -0.3,-0.18 -0.03,-0.02 -0.06,-0.04 -0.09,-0.05 -0.07,-0.04 -0.14,-0.09 -0.21,-0.13 -0.03,-0.02 -0.06,-0.04 -0.09,-0.06 -0.08,-0.05 -0.16,-0.11 -0.24,-0.16 -0.01,-0.01 -0.03,-0.02 -0.04,-0.03 -0.09,-0.06 -0.18,-0.12 -0.27,-0.19 -0.03,-0.02 -0.05,-0.04 -0.07,-0.05 -0.06,-0.05 -0.13,-0.09 -0.19,-0.14 -0.03,-0.02 -0.06,-0.04 -0.08,-0.06 -0.06,-0.05 -0.13,-0.1 -0.19,-0.14 -0.02,-0.02 -0.04,-0.03 -0.06,-0.05 -0.08,-0.06 -0.16,-0.13 -0.24,-0.19 -0.02,-0.01 -0.03,-0.03 -0.05,-0.04 -0.06,-0.05 -0.12,-0.11 -0.19,-0.16 -0.02,-0.02 -0.05,-0.04 -0.07,-0.06 -0.05,-0.05 -0.11,-0.1 -0.16,-0.14 -0.02,-0.02 -0.04,-0.04 -0.07,-0.06 -0.07,-0.07 -0.14,-0.13 -0.21,-0.2 -0,-0 -0,-0 -0,-0 -0.07,-0.07 -0.14,-0.14 -0.2,-0.21 -0.02,-0.02 -0.04,-0.04 -0.06,-0.06 -0.05,-0.05 -0.09,-0.1 -0.14,-0.15 -0.02,-0.02 -0.04,-0.04 -0.06,-0.07 -0.05,-0.06 -0.1,-0.11 -0.15,-0.17 -0.01,-0.01 -0.03,-0.03 -0.04,-0.04 -0.06,-0.07 -0.12,-0.14 -0.18,-0.21 -0.01,-0.01 -0.02,-0.02 -0.03,-0.04 -0.05,-0.06 -0.1,-0.12 -0.14,-0.18 -0.01,-0.01 -0.02,-0.03 -0.03,-0.04 -0.05,-0.07 -0.1,-0.14 -0.15,-0.21 -0.01,-0.02 -0.02,-0.03 -0.03,-0.05 -0.04,-0.06 -0.09,-0.13 -0.13,-0.19 -0.01,-0.01 -0.01,-0.02 -0.02,-0.03 -0.05,-0.07 -0.09,-0.14 -0.13,-0.21 -0.01,-0.02 -0.02,-0.03 -0.03,-0.05 -0.04,-0.07 -0.08,-0.14 -0.13,-0.22 -0,-0 -0,-0.01 -0.01,-0.01 -0.04,-0.07 -0.08,-0.14 -0.12,-0.22 -0.01,-0.03 -0.03,-0.05 -0.04,-0.08 -0.03,-0.05 -0.05,-0.1 -0.08,-0.15 -0.01,-0.03 -0.03,-0.06 -0.04,-0.09 -0.02,-0.05 -0.04,-0.1 -0.06,-0.14 -0.01,-0.03 -0.03,-0.06 -0.04,-0.09 -0.02,-0.05 -0.04,-0.1 -0.06,-0.15 -0.01,-0.02 -0.02,-0.04 -0.02,-0.07 -0.03,-0.07 -0.05,-0.15 -0.08,-0.22 -0,-0 -0,-0 -0,-0 -0.02,-0.07 -0.05,-0.15 -0.07,-0.22 -0.01,-0.02 -0.01,-0.04 -0.02,-0.07 -0.02,-0.06 -0.03,-0.12 -0.05,-0.18 -0,-0.01 -0.01,-0.03 -0.01,-0.04 -0.02,-0.07 -0.03,-0.15 -0.05,-0.22 -0,-0.02 -0.01,-0.03 -0.01,-0.05 -0.01,-0.06 -0.02,-0.13 -0.04,-0.19 -0,-0.01 -0,-0.03 -0.01,-0.04 -0.01,-0.07 -0.02,-0.15 -0.03,-0.22 -0,-0.02 -0,-0.03 -0.01,-0.05 -0.01,-0.07 -0.02,-0.15 -0.02,-0.22 -0,-0.01 -0,-0.01 -0,-0.02 -0.01,-0.07 -0.01,-0.13 -0.01,-0.2 -0,-0.02 -0,-0.04 -0,-0.06 -0,-0.08 -0,-0.15 -0,-0.23l-0.01 5.05c-0,0.08 0,0.15 0,0.23 0,0.02 0,0.04 0,0.06 0,0.02 0,0.05 0,0.07 0,0.04 0.01,0.09 0.01,0.13 0,0.01 0,0.01 0,0.02 0.01,0.07 0.01,0.15 0.02,0.22 0,0.02 0,0.03 0.01,0.05 0.01,0.07 0.02,0.13 0.03,0.2 0,0.01 0,0.01 0,0.02 0,0.01 0,0.03 0.01,0.04 0.01,0.06 0.02,0.13 0.04,0.19 0,0.02 0.01,0.03 0.01,0.05 0.02,0.07 0.03,0.15 0.05,0.22 0,0.01 0.01,0.03 0.01,0.04 0.01,0.03 0.02,0.07 0.03,0.1 0.01,0.03 0.02,0.05 0.02,0.08 0.01,0.02 0.01,0.04 0.02,0.07 0.02,0.07 0.04,0.15 0.07,0.22 0,0 0,0 0,0 0.02,0.07 0.05,0.15 0.08,0.22 0.01,0.02 0.02,0.04 0.03,0.07 0.01,0.03 0.02,0.05 0.03,0.08 0.01,0.02 0.02,0.05 0.03,0.07 0.01,0.03 0.03,0.06 0.04,0.1 0.02,0.05 0.04,0.1 0.06,0.14 0.01,0.03 0.03,0.06 0.04,0.09 0.02,0.05 0.05,0.1 0.08,0.15 0.01,0.03 0.03,0.05 0.04,0.08 0.04,0.07 0.08,0.15 0.12,0.22 0,0 0,0.01 0.01,0.01 0,0 0,0 0,0 0.04,0.07 0.08,0.14 0.12,0.21 0.01,0.02 0.02,0.03 0.03,0.05 0.04,0.07 0.09,0.14 0.13,0.21 0.01,0.01 0.01,0.02 0.02,0.03 0.04,0.06 0.09,0.13 0.13,0.19 0.01,0.02 0.02,0.03 0.03,0.05 0.05,0.07 0.1,0.14 0.15,0.21 0.01,0.01 0.02,0.03 0.03,0.04 0.05,0.06 0.09,0.12 0.14,0.18 0.01,0.01 0.02,0.02 0.03,0.04 0.01,0.01 0.01,0.01 0.02,0.02 0.05,0.06 0.11,0.13 0.16,0.19 0.01,0.02 0.03,0.03 0.04,0.04 0.05,0.06 0.1,0.11 0.15,0.17 0.02,0.02 0.04,0.05 0.06,0.07 0.05,0.05 0.09,0.1 0.14,0.15 0.02,0.02 0.04,0.04 0.06,0.06 0.07,0.07 0.13,0.14 0.2,0.21 0,0 0,0 0,0 0.07,0.07 0.14,0.13 0.21,0.2 0.02,0.02 0.04,0.04 0.07,0.06 0.05,0.05 0.11,0.1 0.16,0.14 0.02,0.02 0.05,0.04 0.07,0.07 0.06,0.05 0.12,0.11 0.19,0.16 0.02,0.01 0.03,0.03 0.05,0.04 0.08,0.07 0.16,0.13 0.24,0.19 0.02,0.02 0.04,0.03 0.06,0.05 0.06,0.05 0.13,0.1 0.19,0.14 0.03,0.02 0.06,0.04 0.08,0.06 0.06,0.05 0.13,0.09 0.19,0.14 0.03,0.02 0.05,0.04 0.08,0.05 0.09,0.06 0.18,0.12 0.27,0.19 0.01,0.01 0.03,0.02 0.04,0.03 0.08,0.05 0.16,0.11 0.24,0.16 0.03,0.02 0.06,0.04 0.09,0.06 0.03,0.02 0.07,0.04 0.1,0.06 0.04,0.02 0.07,0.04 0.11,0.07 0.03,0.02 0.06,0.04 0.09,0.05 0.1,0.06 0.2,0.12 0.3,0.18 0.11,0.06 0.21,0.12 0.32,0.18 0.04,0.02 0.07,0.04 0.11,0.06 0.07,0.04 0.14,0.08 0.22,0.12 0.04,0.02 0.09,0.04 0.13,0.07 0.07,0.03 0.13,0.07 0.2,0.1 0.05,0.02 0.09,0.05 0.14,0.07 0.04,0.02 0.08,0.04 0.12,0.06 0.03,0.01 0.05,0.03 0.08,0.04 0.04,0.02 0.09,0.04 0.13,0.06 0.07,0.03 0.14,0.06 0.21,0.1 0.04,0.02 0.09,0.04 0.13,0.06 0.07,0.03 0.15,0.07 0.22,0.1 0.04,0.02 0.08,0.03 0.12,0.05 0.09,0.04 0.19,0.08 0.28,0.12 0.02,0.01 0.04,0.02 0.07,0.03 0,0 0.01,0 0.01,0 0.01,0 0.02,0.01 0.03,0.01 0.15,0.06 0.3,0.12 0.45,0.17 0.04,0.02 0.09,0.03 0.13,0.05 0.14,0.05 0.29,0.1 0.43,0.15 0.02,0.01 0.03,0.01 0.05,0.02 0,0 0.01,0 0.01,0 0.15,0.05 0.3,0.1 0.44,0.15 0.04,0.01 0.08,0.03 0.12,0.04 0.11,0.03 0.22,0.07 0.33,0.1 0.02,0.01 0.05,0.01 0.07,0.02 0.03,0.01 0.07,0.02 0.1,0.03 0.09,0.03 0.18,0.05 0.26,0.08 0.06,0.02 0.12,0.03 0.17,0.05 0.09,0.02 0.18,0.05 0.27,0.07 0.04,0.01 0.08,0.02 0.11,0.03 0.02,0 0.04,0.01 0.05,0.01 0.09,0.02 0.18,0.04 0.27,0.07 0.05,0.01 0.11,0.03 0.16,0.04 0.1,0.02 0.2,0.05 0.31,0.07 0.04,0.01 0.07,0.02 0.11,0.03 0,0 0.01,0 0.01,0 0.13,0.03 0.26,0.06 0.39,0.08 0.01,0 0.02,0 0.04,0.01 0.14,0.03 0.29,0.06 0.43,0.08 0,0 0.01,0 0.01,0 0.05,0.01 0.1,0.02 0.14,0.03 0.09,0.02 0.18,0.03 0.27,0.05 0.06,0.01 0.12,0.02 0.18,0.03 0.08,0.01 0.17,0.03 0.25,0.04 0.01,0 0.02,0 0.03,0.01 0.05,0.01 0.1,0.01 0.16,0.02 0.08,0.01 0.16,0.02 0.25,0.04 0.06,0.01 0.13,0.02 0.19,0.03 0.08,0.01 0.16,0.02 0.24,0.03 0.02,0 0.03,0 0.05,0.01 0.05,0.01 0.1,0.01 0.15,0.02 0.08,0.01 0.16,0.02 0.24,0.03 0.07,0.01 0.13,0.01 0.2,0.02 0.08,0.01 0.16,0.02 0.24,0.02 0.02,0 0.05,0 0.07,0.01 0.04,0 0.08,0.01 0.12,0.01 0.08,0.01 0.17,0.01 0.25,0.02 0.07,0.01 0.13,0.01 0.2,0.02 0.08,0.01 0.17,0.01 0.25,0.02 0.03,0 0.07,0.01 0.1,0.01 0.03,0 0.06,0 0.1,0.01 0.09,0.01 0.18,0.01 0.26,0.01 0.07,0 0.13,0.01 0.2,0.01 0.09,0 0.18,0.01 0.27,0.01 0.04,0 0.09,0 0.13,0.01 0.02,0 0.04,0 0.06,0 0.1,0 0.2,0.01 0.31,0.01 0.05,0 0.11,0 0.16,0 0.13,0 0.27,0 0.4,0 0.02,0 0.04,0 0.06,0 0,0 0,0 0,0 0.16,0 0.32,-0 0.48,-0 0.05,-0 0.1,-0 0.15,-0 0.11,-0 0.23,-0 0.34,-0.01 0.02,-0 0.05,-0 0.07,-0 0.03,-0 0.06,-0 0.1,-0 0.12,-0 0.24,-0.01 0.36,-0.02 0.05,-0 0.11,-0 0.16,-0.01 0.15,-0.01 0.3,-0.02 0.45,-0.03 0.02,-0 0.03,-0 0.05,-0 0,-0 0,-0 0.01,-0 0.18,-0.01 0.36,-0.03 0.54,-0.04 0.05,-0 0.1,-0.01 0.15,-0.01 0.14,-0.01 0.29,-0.03 0.43,-0.04 0.03,-0 0.06,-0.01 0.09,-0.01 0.02,-0 0.04,-0 0.06,-0.01 0.04,-0 0.09,-0.01 0.13,-0.01 0.09,-0.01 0.18,-0.02 0.27,-0.03 0.05,-0.01 0.09,-0.01 0.14,-0.02 0.09,-0.01 0.18,-0.02 0.27,-0.04 0.04,-0.01 0.08,-0.01 0.12,-0.02 0.13,-0.02 0.26,-0.04 0.39,-0.06 0,-0 0,-0 0,-0 0.14,-0.02 0.28,-0.05 0.42,-0.07 0.02,-0 0.05,-0.01 0.07,-0.01 0.12,-0.02 0.23,-0.04 0.35,-0.06 0.05,-0.01 0.1,-0.02 0.15,-0.03 0.09,-0.02 0.18,-0.03 0.27,-0.05 0.06,-0.01 0.11,-0.02 0.17,-0.04 0.08,-0.02 0.16,-0.03 0.25,-0.05 0,-0 0,-0 0.01,-0 0.04,-0.01 0.07,-0.02 0.11,-0.02 0.1,-0.02 0.21,-0.05 0.31,-0.07 0.05,-0.01 0.1,-0.03 0.16,-0.04 0.09,-0.02 0.17,-0.04 0.26,-0.06 0.06,-0.01 0.11,-0.03 0.17,-0.04 0.08,-0.02 0.16,-0.04 0.24,-0.06 0.06,-0.02 0.12,-0.03 0.18,-0.05 0.08,-0.02 0.16,-0.04 0.23,-0.07 0.06,-0.02 0.12,-0.04 0.18,-0.05 0.08,-0.02 0.15,-0.04 0.23,-0.07 0.06,-0.02 0.12,-0.04 0.18,-0.06 0.07,-0.02 0.15,-0.05 0.22,-0.07 0.06,-0.02 0.12,-0.04 0.18,-0.06 0.07,-0.02 0.14,-0.05 0.22,-0.07 0.06,-0.02 0.12,-0.04 0.18,-0.06 0.07,-0.03 0.14,-0.05 0.21,-0.08 0.06,-0.02 0.12,-0.04 0.18,-0.07 0.07,-0.03 0.14,-0.05 0.21,-0.08 0.06,-0.02 0.12,-0.05 0.18,-0.07 0.07,-0.03 0.14,-0.06 0.21,-0.09 0.06,-0.02 0.11,-0.05 0.17,-0.07 0.07,-0.03 0.14,-0.06 0.21,-0.09 0.06,-0.02 0.11,-0.05 0.17,-0.07 0.07,-0.03 0.14,-0.06 0.21,-0.09 0.05,-0.02 0.11,-0.05 0.16,-0.07 0.07,-0.03 0.14,-0.07 0.21,-0.1 0.05,-0.03 0.1,-0.05 0.15,-0.07 0.07,-0.04 0.14,-0.07 0.22,-0.11 0.05,-0.02 0.1,-0.05 0.14,-0.07 0.08,-0.04 0.16,-0.08 0.23,-0.13 0.04,-0.02 0.08,-0.04 0.12,-0.06 0.12,-0.06 0.23,-0.13 0.34,-0.19 3.5,-2.03 5.25,-4.7 5.26,-7.36l0.01 -5.05c-0.01,2.67 -1.76,5.33 -5.26,7.36z"/>
       </g>
       <g>
        <path class="fil7" d="M75.9 66.42c7.09,4.1 7.13,10.74 0.08,14.83 -7.05,4.1 -18.51,4.1 -25.6,0 -7.09,-4.1 -7.13,-10.74 -0.08,-14.83 7.05,-4.1 18.51,-4.1 25.6,-0z"/>
       </g>
       <path class="fil9" d="M73.6 67.75c-2.81,-1.62 -6.55,-2.52 -10.51,-2.52 -3.97,0 -7.69,0.89 -10.48,2.52 -2.79,1.62 -4.33,3.78 -4.31,6.08 0.01,2.3 1.57,4.46 4.38,6.08 2.81,1.62 6.55,2.52 10.51,2.52 3.97,0 7.69,-0.89 10.48,-2.52 2.79,-1.62 4.33,-3.78 4.31,-6.08 -0.01,-2.3 -1.57,-4.46 -4.38,-6.08zm-0.61 11.77l0 0c-5.39,3.13 -14.2,3.14 -19.63,-0 -5.43,-3.14 -5.46,-8.24 -0.06,-11.37 5.4,-3.14 14.2,-3.14 19.63,0 5.43,3.14 5.46,8.24 0.06,11.37z"/>
       <path class="fil8" d="M70.64 70.77l2.34 -1.36 -1.58 -0.91 -2.36 1.37c-2.52,-1.16 -5.26,-1.28 -7.17,-0.17 -2.38,1.38 -1.1,2.89 0.17,4.24l-3.57 2.08c-1.01,-0.79 -1.7,-1.89 -1.79,-3.08l-2.74 0.53c0.1,1.28 0.95,2.64 2.53,3.72l-2.5 1.45 1.58 0.91 2.52 -1.46c2.55,1.16 5.4,1.3 7.39,0.15 2.47,-1.41 1.13,-2.97 -0.15,-4.35l3.31 -1.92c0.68,0.56 1.33,1.33 1.72,2.23l2.74 -0.57c-0.33,-0.96 -1.18,-1.98 -2.42,-2.85zm-7.66 6.16l0 0c-0.75,0.44 -1.79,0.42 -2.92,-0.01l3.07 -1.79c0.52,0.7 0.69,1.31 -0.15,1.8zm1.27 -4.28l0 0c-0.49,-0.65 -0.6,-1.24 0.19,-1.69 0.68,-0.39 1.63,-0.34 2.62,0.06l-2.81 1.63z"/>
      </g>
      <g>
       <g>
        <path class="fil6" d="M82.15 73.72c-0.11,0.07 -0.23,0.13 -0.34,0.19 -0.04,0.02 -0.08,0.04 -0.12,0.06 -0.08,0.04 -0.16,0.08 -0.23,0.13 -0.05,0.02 -0.1,0.05 -0.14,0.07 -0.07,0.04 -0.14,0.07 -0.21,0.11 -0.05,0.03 -0.1,0.05 -0.15,0.08 -0.07,0.03 -0.14,0.07 -0.21,0.1 -0.05,0.03 -0.11,0.05 -0.16,0.07 -0.07,0.03 -0.14,0.06 -0.21,0.09 -0.06,0.02 -0.11,0.05 -0.17,0.07 -0.07,0.03 -0.14,0.06 -0.21,0.09 -0.06,0.02 -0.11,0.05 -0.17,0.07 -0.07,0.03 -0.14,0.06 -0.21,0.08 -0.06,0.02 -0.12,0.05 -0.18,0.07 -0.07,0.03 -0.14,0.05 -0.21,0.08 -0.06,0.02 -0.12,0.04 -0.18,0.07 -0.07,0.03 -0.14,0.05 -0.21,0.08 -0.06,0.02 -0.12,0.04 -0.18,0.06 -0.07,0.03 -0.14,0.05 -0.22,0.07 -0.06,0.02 -0.12,0.04 -0.18,0.06 -0.07,0.02 -0.15,0.05 -0.22,0.07 -0.06,0.02 -0.12,0.04 -0.18,0.06 -0.08,0.02 -0.15,0.05 -0.23,0.07 -0.06,0.02 -0.12,0.04 -0.18,0.05 -0.08,0.02 -0.15,0.04 -0.23,0.07 -0.06,0.02 -0.12,0.03 -0.18,0.05 -0.08,0.02 -0.16,0.04 -0.24,0.06 -0.06,0.01 -0.11,0.03 -0.17,0.04 -0.09,0.02 -0.17,0.04 -0.26,0.06 -0.05,0.01 -0.1,0.03 -0.16,0.04 -0.1,0.02 -0.21,0.05 -0.31,0.07 -0.04,0.01 -0.07,0.02 -0.11,0.03 -0.08,0.02 -0.16,0.03 -0.25,0.05 -0.06,0.01 -0.11,0.02 -0.17,0.04 -0.09,0.02 -0.18,0.03 -0.27,0.05 -0.05,0.01 -0.1,0.02 -0.15,0.03 -0.12,0.02 -0.23,0.04 -0.35,0.06 -0.02,0 -0.05,0.01 -0.07,0.01 -0.14,0.02 -0.28,0.05 -0.42,0.07 -0.13,0.02 -0.26,0.04 -0.39,0.06 -0.04,0.01 -0.08,0.01 -0.12,0.02 -0.09,0.01 -0.18,0.02 -0.27,0.04 -0.05,0.01 -0.09,0.01 -0.14,0.02 -0.09,0.01 -0.18,0.02 -0.27,0.03 -0.04,0 -0.09,0.01 -0.13,0.01 -0.05,0.01 -0.1,0.01 -0.14,0.02 -0.14,0.01 -0.28,0.03 -0.43,0.04 -0.05,0 -0.1,0.01 -0.15,0.01 -0.18,0.02 -0.36,0.03 -0.54,0.04 -0.02,0 -0.04,0 -0.05,0 -0.15,0.01 -0.3,0.02 -0.45,0.03 -0.05,0 -0.11,0.01 -0.16,0.01 -0.12,0.01 -0.24,0.01 -0.36,0.02 -0.06,0 -0.11,0 -0.17,0.01 -0.11,0 -0.23,0.01 -0.34,0.01 -0.05,0 -0.1,0 -0.15,0 -0.16,0 -0.32,0 -0.48,0 -0.02,0 -0.04,-0 -0.07,-0 -0.13,-0 -0.27,-0 -0.4,-0 -0.05,-0 -0.11,-0 -0.16,-0 -0.1,-0 -0.2,-0 -0.31,-0.01 -0.06,-0 -0.13,-0 -0.19,-0.01 -0.09,-0 -0.18,-0.01 -0.27,-0.01 -0.07,-0 -0.13,-0.01 -0.2,-0.01 -0.09,-0 -0.18,-0.01 -0.26,-0.01 -0.07,-0 -0.13,-0.01 -0.2,-0.01 -0.08,-0.01 -0.17,-0.01 -0.25,-0.02 -0.07,-0 -0.13,-0.01 -0.2,-0.02 -0.08,-0.01 -0.17,-0.01 -0.25,-0.02 -0.07,-0.01 -0.13,-0.01 -0.2,-0.02 -0.08,-0.01 -0.16,-0.02 -0.24,-0.02 -0.07,-0.01 -0.13,-0.01 -0.2,-0.02 -0.08,-0.01 -0.16,-0.02 -0.24,-0.03 -0.07,-0.01 -0.13,-0.02 -0.2,-0.02 -0.08,-0.01 -0.16,-0.02 -0.24,-0.03 -0.06,-0.01 -0.13,-0.02 -0.19,-0.03 -0.08,-0.01 -0.16,-0.02 -0.25,-0.04 -0.06,-0.01 -0.12,-0.02 -0.19,-0.03 -0.08,-0.01 -0.17,-0.03 -0.25,-0.04 -0.06,-0.01 -0.12,-0.02 -0.18,-0.03 -0.09,-0.02 -0.18,-0.03 -0.27,-0.05 -0.05,-0.01 -0.11,-0.02 -0.16,-0.03 -0.14,-0.03 -0.29,-0.05 -0.43,-0.08 -0.01,-0 -0.02,-0 -0.04,-0.01 -0.13,-0.03 -0.26,-0.05 -0.39,-0.08 -0.04,-0.01 -0.08,-0.02 -0.13,-0.03 -0.1,-0.02 -0.21,-0.05 -0.31,-0.07 -0.05,-0.01 -0.11,-0.03 -0.16,-0.04 -0.09,-0.02 -0.18,-0.04 -0.27,-0.07 -0.06,-0.01 -0.11,-0.03 -0.17,-0.04 -0.09,-0.02 -0.18,-0.05 -0.27,-0.07 -0.06,-0.02 -0.12,-0.03 -0.17,-0.05 -0.09,-0.02 -0.18,-0.05 -0.26,-0.08 -0.06,-0.02 -0.11,-0.03 -0.17,-0.05 -0.11,-0.03 -0.22,-0.07 -0.33,-0.1 -0.04,-0.01 -0.08,-0.03 -0.12,-0.04 -0.15,-0.05 -0.3,-0.1 -0.44,-0.15 -0.02,-0.01 -0.04,-0.02 -0.06,-0.02 -0.14,-0.05 -0.29,-0.1 -0.43,-0.15 -0.04,-0.02 -0.09,-0.03 -0.13,-0.05 -0.15,-0.06 -0.3,-0.11 -0.45,-0.17 -0.01,-0.01 -0.03,-0.01 -0.04,-0.02 -0.02,-0.01 -0.04,-0.02 -0.07,-0.03 -0.09,-0.04 -0.19,-0.08 -0.28,-0.12 -0.04,-0.02 -0.08,-0.03 -0.12,-0.05 -0.07,-0.03 -0.15,-0.06 -0.22,-0.1 -0.04,-0.02 -0.09,-0.04 -0.13,-0.06 -0.07,-0.03 -0.14,-0.06 -0.21,-0.1 -0.04,-0.02 -0.09,-0.04 -0.13,-0.06 -0.07,-0.03 -0.13,-0.06 -0.2,-0.1 -0.05,-0.02 -0.09,-0.05 -0.14,-0.07 -0.07,-0.03 -0.13,-0.07 -0.2,-0.1 -0.04,-0.02 -0.09,-0.04 -0.13,-0.07 -0.07,-0.04 -0.15,-0.08 -0.22,-0.12 -0.04,-0.02 -0.07,-0.04 -0.11,-0.06 -0.11,-0.06 -0.21,-0.12 -0.32,-0.18 -0.1,-0.06 -0.2,-0.12 -0.3,-0.18 -0.03,-0.02 -0.06,-0.04 -0.09,-0.05 -0.07,-0.04 -0.14,-0.09 -0.21,-0.13 -0.03,-0.02 -0.06,-0.04 -0.09,-0.06 -0.08,-0.05 -0.16,-0.11 -0.24,-0.16 -0.01,-0.01 -0.03,-0.02 -0.04,-0.03 -0.09,-0.06 -0.18,-0.12 -0.27,-0.19 -0.03,-0.02 -0.05,-0.04 -0.07,-0.05 -0.06,-0.05 -0.13,-0.09 -0.19,-0.14 -0.03,-0.02 -0.06,-0.04 -0.08,-0.06 -0.06,-0.05 -0.13,-0.1 -0.19,-0.14 -0.02,-0.02 -0.04,-0.03 -0.06,-0.05 -0.08,-0.06 -0.16,-0.13 -0.24,-0.19 -0.02,-0.01 -0.03,-0.03 -0.05,-0.04 -0.06,-0.05 -0.12,-0.11 -0.19,-0.16 -0.02,-0.02 -0.05,-0.04 -0.07,-0.06 -0.05,-0.05 -0.11,-0.1 -0.16,-0.14 -0.02,-0.02 -0.04,-0.04 -0.07,-0.06 -0.07,-0.07 -0.14,-0.13 -0.21,-0.2 -0,-0 -0,-0 -0,-0 -0.07,-0.07 -0.14,-0.14 -0.2,-0.21 -0.02,-0.02 -0.04,-0.04 -0.06,-0.06 -0.05,-0.05 -0.09,-0.1 -0.14,-0.15 -0.02,-0.02 -0.04,-0.05 -0.06,-0.07 -0.05,-0.06 -0.1,-0.11 -0.15,-0.17 -0.01,-0.01 -0.03,-0.03 -0.04,-0.04 -0.06,-0.07 -0.12,-0.14 -0.18,-0.21 -0.01,-0.01 -0.02,-0.02 -0.03,-0.04 -0.05,-0.06 -0.1,-0.12 -0.14,-0.18 -0.01,-0.01 -0.02,-0.03 -0.03,-0.04 -0.05,-0.07 -0.1,-0.14 -0.15,-0.21 -0.01,-0.02 -0.02,-0.03 -0.03,-0.05 -0.04,-0.06 -0.09,-0.13 -0.13,-0.19 -0.01,-0.01 -0.01,-0.02 -0.02,-0.03 -0.05,-0.07 -0.09,-0.14 -0.13,-0.21 -0.01,-0.02 -0.02,-0.03 -0.03,-0.05 -0.04,-0.07 -0.08,-0.14 -0.13,-0.22 -0,-0 -0,-0.01 -0.01,-0.01 -0.04,-0.07 -0.08,-0.14 -0.12,-0.22 -0.01,-0.03 -0.03,-0.05 -0.04,-0.08 -0.03,-0.05 -0.05,-0.1 -0.08,-0.15 -0.01,-0.03 -0.03,-0.06 -0.04,-0.09 -0.02,-0.05 -0.04,-0.1 -0.06,-0.14 -0.01,-0.03 -0.03,-0.06 -0.04,-0.09 -0.02,-0.05 -0.04,-0.1 -0.06,-0.15 -0.01,-0.02 -0.02,-0.04 -0.02,-0.07 -0.03,-0.07 -0.05,-0.15 -0.08,-0.22 -0,-0 -0,-0 -0,-0 -0.02,-0.07 -0.05,-0.15 -0.07,-0.22 -0.01,-0.02 -0.01,-0.04 -0.02,-0.07 -0.02,-0.06 -0.03,-0.12 -0.05,-0.18 -0,-0.01 -0.01,-0.03 -0.01,-0.04 -0.02,-0.07 -0.03,-0.15 -0.05,-0.22 -0,-0.02 -0.01,-0.03 -0.01,-0.05 -0.01,-0.06 -0.02,-0.13 -0.04,-0.19 -0,-0.01 -0,-0.03 -0.01,-0.04 -0.01,-0.07 -0.02,-0.15 -0.03,-0.22 -0,-0.02 -0,-0.03 -0.01,-0.05 -0.01,-0.07 -0.02,-0.15 -0.02,-0.22 -0,-0.01 -0,-0.01 -0,-0.02 -0.01,-0.07 -0.01,-0.13 -0.01,-0.2 -0,-0.02 -0,-0.04 -0,-0.06 -0,-0.08 -0,-0.15 -0,-0.23l-0.01 5.05c-0,0.08 0,0.15 0,0.23 0,0.02 0,0.04 0,0.06 0,0.02 0,0.05 0,0.07 0,0.04 0.01,0.09 0.01,0.13 0,0.01 0,0.01 0,0.02 0.01,0.07 0.01,0.15 0.02,0.22 0,0.02 0,0.03 0.01,0.05 0.01,0.07 0.02,0.13 0.03,0.2 0,0.01 0,0.01 0,0.02 0,0.01 0,0.03 0.01,0.04 0.01,0.06 0.02,0.13 0.04,0.19 0,0.02 0.01,0.03 0.01,0.05 0.02,0.07 0.03,0.15 0.05,0.22 0,0.01 0.01,0.03 0.01,0.04 0.01,0.03 0.02,0.07 0.03,0.1 0.01,0.03 0.02,0.05 0.02,0.08 0.01,0.02 0.01,0.04 0.02,0.07 0.02,0.07 0.04,0.15 0.07,0.22 0,0 0,0 0,0 0.02,0.07 0.05,0.15 0.08,0.22 0.01,0.02 0.02,0.04 0.03,0.07 0.01,0.03 0.02,0.05 0.03,0.08 0.01,0.02 0.02,0.05 0.03,0.07 0.01,0.03 0.03,0.06 0.04,0.1 0.02,0.05 0.04,0.1 0.06,0.14 0.01,0.03 0.03,0.06 0.04,0.09 0.02,0.05 0.05,0.1 0.08,0.15 0.01,0.03 0.03,0.05 0.04,0.08 0.04,0.07 0.08,0.15 0.12,0.22 0,0 0,0.01 0.01,0.01 0,0 0,0 0,0 0.04,0.07 0.08,0.14 0.12,0.21 0.01,0.02 0.02,0.03 0.03,0.05 0.04,0.07 0.09,0.14 0.13,0.21 0.01,0.01 0.01,0.02 0.02,0.03 0.04,0.06 0.09,0.13 0.13,0.19 0.01,0.02 0.02,0.03 0.03,0.05 0.05,0.07 0.1,0.14 0.15,0.21 0.01,0.01 0.02,0.03 0.03,0.04 0.05,0.06 0.09,0.12 0.14,0.18 0.01,0.01 0.02,0.02 0.03,0.04 0.01,0.01 0.01,0.01 0.02,0.02 0.05,0.06 0.11,0.13 0.16,0.19 0.01,0.01 0.03,0.03 0.04,0.04 0.05,0.06 0.1,0.11 0.15,0.17 0.02,0.02 0.04,0.05 0.06,0.07 0.05,0.05 0.09,0.1 0.14,0.15 0.02,0.02 0.04,0.04 0.06,0.06 0.07,0.07 0.13,0.14 0.2,0.21 0,0 0,0 0,0 0.07,0.07 0.14,0.13 0.21,0.2 0.02,0.02 0.04,0.04 0.07,0.06 0.05,0.05 0.11,0.1 0.16,0.14 0.02,0.02 0.05,0.04 0.07,0.07 0.06,0.05 0.12,0.11 0.19,0.16 0.02,0.01 0.03,0.03 0.05,0.04 0.08,0.07 0.16,0.13 0.24,0.19 0.02,0.02 0.04,0.03 0.06,0.05 0.06,0.05 0.13,0.1 0.19,0.14 0.03,0.02 0.06,0.04 0.08,0.06 0.06,0.05 0.13,0.09 0.19,0.14 0.03,0.02 0.05,0.04 0.07,0.05 0.09,0.06 0.18,0.12 0.27,0.19 0.01,0.01 0.03,0.02 0.04,0.03 0.08,0.05 0.16,0.11 0.24,0.16 0.03,0.02 0.06,0.04 0.09,0.06 0.03,0.02 0.07,0.04 0.1,0.06 0.04,0.02 0.07,0.04 0.11,0.07 0.03,0.02 0.06,0.04 0.09,0.05 0.1,0.06 0.2,0.12 0.3,0.18 0.11,0.06 0.21,0.12 0.32,0.18 0.04,0.02 0.07,0.04 0.11,0.06 0.07,0.04 0.14,0.08 0.22,0.12 0.04,0.02 0.09,0.04 0.13,0.07 0.07,0.03 0.13,0.07 0.2,0.1 0.05,0.02 0.09,0.05 0.14,0.07 0.04,0.02 0.08,0.04 0.12,0.06 0.03,0.01 0.05,0.03 0.08,0.04 0.04,0.02 0.09,0.04 0.13,0.06 0.07,0.03 0.14,0.06 0.21,0.1 0.04,0.02 0.09,0.04 0.13,0.06 0.07,0.03 0.15,0.07 0.22,0.1 0.04,0.02 0.08,0.03 0.12,0.05 0.09,0.04 0.19,0.08 0.28,0.12 0.02,0.01 0.04,0.02 0.07,0.03 0,0 0.01,0 0.01,0 0.01,0 0.02,0.01 0.03,0.01 0.15,0.06 0.3,0.12 0.45,0.17 0.04,0.02 0.09,0.03 0.13,0.05 0.14,0.05 0.29,0.1 0.43,0.15 0.02,0.01 0.03,0.01 0.05,0.02 0,0 0.01,0 0.01,0 0.15,0.05 0.3,0.1 0.44,0.15 0.04,0.01 0.08,0.03 0.12,0.04 0.11,0.03 0.22,0.07 0.33,0.1 0.02,0.01 0.04,0.01 0.07,0.02 0.03,0.01 0.07,0.02 0.1,0.03 0.09,0.03 0.18,0.05 0.26,0.08 0.06,0.02 0.12,0.03 0.17,0.05 0.09,0.02 0.18,0.05 0.27,0.07 0.04,0.01 0.08,0.02 0.11,0.03 0.02,0 0.04,0.01 0.05,0.01 0.09,0.02 0.18,0.04 0.27,0.07 0.05,0.01 0.11,0.03 0.16,0.04 0.1,0.02 0.2,0.05 0.31,0.07 0.04,0.01 0.07,0.02 0.11,0.03 0,0 0.01,0 0.01,0 0.13,0.03 0.26,0.06 0.39,0.08 0.01,0 0.02,0 0.04,0.01 0.14,0.03 0.29,0.06 0.43,0.08 0,0 0.01,0 0.01,0 0.05,0.01 0.1,0.02 0.14,0.03 0.09,0.02 0.18,0.03 0.27,0.05 0.06,0.01 0.12,0.02 0.18,0.03 0.08,0.01 0.17,0.03 0.25,0.04 0.01,0 0.02,0 0.03,0.01 0.05,0.01 0.1,0.02 0.16,0.02 0.08,0.01 0.16,0.02 0.25,0.04 0.06,0.01 0.13,0.02 0.19,0.03 0.08,0.01 0.16,0.02 0.24,0.03 0.02,0 0.03,0 0.05,0.01 0.05,0.01 0.1,0.01 0.15,0.02 0.08,0.01 0.16,0.02 0.24,0.03 0.07,0.01 0.13,0.01 0.2,0.02 0.08,0.01 0.16,0.02 0.24,0.02 0.02,0 0.05,0.01 0.07,0.01 0.04,0 0.08,0.01 0.12,0.01 0.08,0.01 0.17,0.01 0.25,0.02 0.07,0.01 0.13,0.01 0.2,0.02 0.08,0.01 0.17,0.01 0.25,0.02 0.03,0 0.07,0.01 0.1,0.01 0.03,0 0.06,0 0.1,0.01 0.09,0.01 0.18,0.01 0.26,0.01 0.07,0 0.13,0.01 0.19,0.01 0.09,0 0.18,0.01 0.27,0.01 0.04,0 0.09,0 0.13,0.01 0.02,0 0.04,0 0.06,0 0.1,0 0.2,0.01 0.31,0.01 0.05,0 0.11,0 0.16,0 0.13,0 0.27,0 0.4,0 0.02,0 0.04,0 0.06,0 0,0 0,-0 0,-0 0.16,0 0.32,-0 0.48,-0 0.05,-0 0.1,-0 0.15,-0 0.11,-0 0.23,-0 0.34,-0.01 0.02,-0 0.05,-0 0.07,-0 0.03,-0 0.06,-0 0.1,-0 0.12,-0 0.24,-0.01 0.36,-0.02 0.05,-0 0.11,-0 0.16,-0.01 0.15,-0.01 0.3,-0.02 0.45,-0.03 0.02,-0 0.03,-0 0.05,-0 0,-0 0,-0 0.01,-0 0.18,-0.01 0.36,-0.03 0.54,-0.04 0.05,-0 0.1,-0.01 0.15,-0.01 0.14,-0.01 0.29,-0.03 0.43,-0.04 0.03,-0 0.06,-0.01 0.09,-0.01 0.02,-0 0.04,-0 0.06,-0.01 0.04,-0 0.09,-0.01 0.13,-0.01 0.09,-0.01 0.18,-0.02 0.27,-0.03 0.05,-0.01 0.09,-0.01 0.14,-0.02 0.09,-0.01 0.18,-0.02 0.27,-0.04 0.04,-0.01 0.08,-0.01 0.12,-0.02 0.13,-0.02 0.26,-0.04 0.39,-0.06 0,-0 0,-0 0,-0 0.14,-0.02 0.28,-0.05 0.42,-0.07 0.02,-0 0.05,-0.01 0.07,-0.01 0.12,-0.02 0.23,-0.04 0.35,-0.06 0.05,-0.01 0.1,-0.02 0.15,-0.03 0.09,-0.02 0.18,-0.03 0.27,-0.05 0.06,-0.01 0.11,-0.02 0.17,-0.04 0.08,-0.02 0.16,-0.03 0.25,-0.05 0,-0 0,-0 0.01,-0 0.04,-0.01 0.07,-0.02 0.11,-0.02 0.1,-0.02 0.21,-0.05 0.31,-0.07 0.05,-0.01 0.11,-0.03 0.16,-0.04 0.09,-0.02 0.17,-0.04 0.26,-0.06 0.06,-0.01 0.11,-0.03 0.17,-0.04 0.08,-0.02 0.16,-0.04 0.24,-0.06 0.06,-0.02 0.12,-0.03 0.18,-0.05 0.08,-0.02 0.16,-0.04 0.23,-0.07 0.06,-0.02 0.12,-0.04 0.18,-0.05 0.08,-0.02 0.15,-0.04 0.23,-0.07 0.06,-0.02 0.12,-0.04 0.18,-0.06 0.07,-0.02 0.15,-0.05 0.22,-0.07 0.06,-0.02 0.12,-0.04 0.18,-0.06 0.07,-0.02 0.14,-0.05 0.22,-0.07 0.06,-0.02 0.12,-0.04 0.18,-0.06 0.07,-0.03 0.14,-0.05 0.21,-0.08 0.06,-0.02 0.12,-0.04 0.18,-0.07 0.07,-0.03 0.14,-0.05 0.21,-0.08 0.06,-0.02 0.12,-0.05 0.18,-0.07 0.07,-0.03 0.14,-0.06 0.21,-0.09 0.06,-0.02 0.12,-0.05 0.17,-0.07 0.07,-0.03 0.14,-0.06 0.21,-0.09 0.06,-0.02 0.11,-0.05 0.17,-0.07 0.07,-0.03 0.14,-0.06 0.21,-0.09 0.05,-0.02 0.11,-0.05 0.16,-0.07 0.07,-0.03 0.14,-0.07 0.21,-0.1 0.05,-0.02 0.1,-0.05 0.15,-0.07 0.07,-0.04 0.14,-0.07 0.22,-0.11 0.05,-0.02 0.1,-0.05 0.14,-0.07 0.08,-0.04 0.16,-0.08 0.23,-0.13 0.04,-0.02 0.08,-0.04 0.12,-0.06 0.12,-0.06 0.23,-0.13 0.34,-0.19 3.5,-2.03 5.25,-4.7 5.26,-7.36l0.01 -5.05c-0.01,2.67 -1.76,5.33 -5.26,7.36z"/>
       </g>
       <g>
        <path class="fil7" d="M82.07 58.89c7.09,4.1 7.13,10.74 0.08,14.83 -7.05,4.1 -18.51,4.1 -25.6,0 -7.09,-4.1 -7.13,-10.74 -0.08,-14.83 7.05,-4.1 18.51,-4.1 25.6,-0z"/>
       </g>
       <path class="fil9" d="M79.77 60.23c-2.81,-1.62 -6.55,-2.52 -10.51,-2.52 -3.97,0 -7.69,0.89 -10.48,2.52 -2.79,1.62 -4.33,3.78 -4.31,6.08 0.01,2.3 1.57,4.46 4.38,6.08 2.81,1.62 6.55,2.52 10.51,2.52 3.97,0 7.69,-0.89 10.48,-2.52 2.79,-1.62 4.33,-3.78 4.31,-6.08 -0.01,-2.3 -1.57,-4.46 -4.38,-6.08zm-0.61 11.77l0 0c-5.39,3.13 -14.2,3.14 -19.63,-0 -5.43,-3.14 -5.46,-8.24 -0.06,-11.37 5.4,-3.14 14.2,-3.14 19.63,-0 5.43,3.14 5.46,8.24 0.06,11.37z"/>
      </g>
     </g>
     <g>
      <g>
       <path class="fil6" d="M64.6 91.16c-0,-0.04 -0,-0.09 -0,-0.13 -0,-0.08 -0,-0.17 -0.01,-0.25 -0,-0.05 -0,-0.1 -0.01,-0.15 -0,-0.08 -0.01,-0.15 -0.01,-0.23 -0,-0.05 -0.01,-0.11 -0.01,-0.16 -0,-0.07 -0.01,-0.15 -0.02,-0.22 -0,-0.06 -0.01,-0.11 -0.02,-0.17 -0.01,-0.07 -0.01,-0.14 -0.02,-0.21 -0.01,-0.06 -0.01,-0.12 -0.02,-0.18 -0.01,-0.07 -0.02,-0.14 -0.02,-0.21 -0.01,-0.06 -0.02,-0.12 -0.02,-0.18 -0.01,-0.07 -0.02,-0.14 -0.03,-0.21 -0.01,-0.06 -0.02,-0.12 -0.03,-0.18 -0.01,-0.07 -0.02,-0.14 -0.03,-0.21 -0.01,-0.06 -0.02,-0.12 -0.03,-0.18 -0.01,-0.07 -0.02,-0.14 -0.03,-0.21 -0.01,-0.06 -0.02,-0.12 -0.03,-0.19 -0.01,-0.07 -0.03,-0.14 -0.04,-0.21 -0.01,-0.06 -0.02,-0.12 -0.04,-0.19 -0.01,-0.07 -0.03,-0.14 -0.04,-0.21 -0.01,-0.06 -0.03,-0.12 -0.04,-0.19 -0.02,-0.07 -0.03,-0.14 -0.05,-0.21 -0.01,-0.06 -0.03,-0.13 -0.04,-0.19 -0.02,-0.07 -0.03,-0.14 -0.05,-0.21 -0.02,-0.06 -0.03,-0.13 -0.05,-0.19 -0.02,-0.07 -0.04,-0.14 -0.05,-0.21 -0.02,-0.06 -0.03,-0.13 -0.05,-0.19 -0.02,-0.07 -0.04,-0.14 -0.06,-0.21 -0.02,-0.06 -0.04,-0.13 -0.05,-0.19 -0.02,-0.07 -0.04,-0.14 -0.06,-0.21 -0.02,-0.06 -0.04,-0.13 -0.06,-0.19 -0.02,-0.07 -0.04,-0.14 -0.06,-0.21 -0.02,-0.06 -0.04,-0.13 -0.06,-0.19 -0.02,-0.07 -0.04,-0.14 -0.07,-0.21 -0.02,-0.06 -0.04,-0.13 -0.06,-0.19 -0.02,-0.07 -0.05,-0.14 -0.07,-0.21 -0.02,-0.06 -0.04,-0.13 -0.07,-0.19 -0.02,-0.07 -0.05,-0.14 -0.07,-0.21 -0.02,-0.06 -0.05,-0.12 -0.07,-0.19 -0.03,-0.07 -0.05,-0.14 -0.08,-0.21 -0.02,-0.06 -0.05,-0.12 -0.07,-0.19 -0.03,-0.07 -0.05,-0.14 -0.08,-0.21 -0.02,-0.06 -0.05,-0.12 -0.07,-0.19 -0.03,-0.07 -0.06,-0.14 -0.09,-0.21 -0.03,-0.06 -0.05,-0.12 -0.08,-0.18 -0.03,-0.07 -0.06,-0.14 -0.09,-0.21 -0.03,-0.06 -0.05,-0.12 -0.08,-0.18 -0.03,-0.07 -0.06,-0.14 -0.09,-0.21 -0.03,-0.06 -0.05,-0.12 -0.08,-0.18 -0.03,-0.07 -0.06,-0.14 -0.1,-0.21 -0.03,-0.06 -0.06,-0.12 -0.08,-0.18 -0.03,-0.07 -0.07,-0.14 -0.1,-0.21 -0.03,-0.06 -0.06,-0.12 -0.08,-0.18 -0.03,-0.07 -0.07,-0.14 -0.1,-0.21 -0.03,-0.06 -0.06,-0.11 -0.09,-0.17 -0.04,-0.07 -0.07,-0.14 -0.11,-0.21 -0.03,-0.06 -0.06,-0.11 -0.09,-0.17 -0.04,-0.07 -0.08,-0.15 -0.12,-0.22 -0.03,-0.05 -0.06,-0.11 -0.08,-0.16 -0.04,-0.08 -0.08,-0.15 -0.13,-0.23 -0.03,-0.05 -0.05,-0.1 -0.08,-0.14 -0,-0 -0,-0.01 -0,-0.01 -0.04,-0.06 -0.07,-0.13 -0.11,-0.19 -0.03,-0.06 -0.07,-0.12 -0.1,-0.18 -0.04,-0.07 -0.08,-0.13 -0.12,-0.2 -0.03,-0.06 -0.07,-0.12 -0.1,-0.18 -0.04,-0.07 -0.08,-0.13 -0.12,-0.2 -0.03,-0.06 -0.07,-0.11 -0.1,-0.17 -0.04,-0.07 -0.09,-0.14 -0.13,-0.21 -0.03,-0.05 -0.07,-0.11 -0.1,-0.16 -0.04,-0.07 -0.09,-0.14 -0.13,-0.21 -0.03,-0.05 -0.07,-0.1 -0.1,-0.15 -0.05,-0.07 -0.1,-0.15 -0.15,-0.22 -0.03,-0.05 -0.06,-0.09 -0.09,-0.14 -0.05,-0.08 -0.11,-0.16 -0.16,-0.24 -0.03,-0.04 -0.05,-0.08 -0.08,-0.12 -0.07,-0.11 -0.15,-0.21 -0.23,-0.32 -0.01,-0.01 -0.01,-0.02 -0.02,-0.03 -0.08,-0.11 -0.16,-0.22 -0.24,-0.33 -0.03,-0.03 -0.05,-0.07 -0.08,-0.1 -0.05,-0.07 -0.11,-0.15 -0.16,-0.22 -0.03,-0.04 -0.06,-0.08 -0.09,-0.12 -0.05,-0.07 -0.1,-0.13 -0.15,-0.2 -0.03,-0.04 -0.06,-0.08 -0.1,-0.12 -0.05,-0.07 -0.11,-0.13 -0.16,-0.2 -0.03,-0.04 -0.06,-0.08 -0.09,-0.11 -0.06,-0.08 -0.12,-0.15 -0.19,-0.23 -0.02,-0.03 -0.04,-0.05 -0.07,-0.08 -0.08,-0.1 -0.17,-0.2 -0.26,-0.3 -0.02,-0.02 -0.04,-0.05 -0.06,-0.07 -0.06,-0.06 -0.11,-0.13 -0.17,-0.19 -0.01,-0.01 -0.02,-0.03 -0.03,-0.04 -0.03,-0.03 -0.06,-0.07 -0.09,-0.1 -0.06,-0.07 -0.12,-0.13 -0.18,-0.2 -0.03,-0.04 -0.06,-0.07 -0.1,-0.11 -0.06,-0.06 -0.12,-0.13 -0.18,-0.19 -0.03,-0.03 -0.06,-0.07 -0.09,-0.1 -0.07,-0.07 -0.14,-0.15 -0.21,-0.22 -0.02,-0.02 -0.04,-0.04 -0.06,-0.06 -0.09,-0.09 -0.18,-0.18 -0.27,-0.27 -0.02,-0.02 -0.05,-0.05 -0.07,-0.07 -0.07,-0.07 -0.13,-0.13 -0.2,-0.2 -0.03,-0.03 -0.07,-0.06 -0.1,-0.09 -0.06,-0.06 -0.12,-0.12 -0.18,-0.17 -0.03,-0.03 -0.07,-0.06 -0.1,-0.09 -0.02,-0.02 -0.04,-0.04 -0.06,-0.06 -0.04,-0.04 -0.08,-0.07 -0.12,-0.11 -0.04,-0.04 -0.08,-0.07 -0.12,-0.11 -0.06,-0.06 -0.12,-0.11 -0.19,-0.17 -0.04,-0.03 -0.07,-0.06 -0.1,-0.09 -0.08,-0.07 -0.16,-0.14 -0.24,-0.2 -0.02,-0.02 -0.04,-0.03 -0.06,-0.05 -0.1,-0.08 -0.2,-0.16 -0.3,-0.25 -0.03,-0.02 -0.06,-0.04 -0.08,-0.07 -0.07,-0.06 -0.14,-0.11 -0.21,-0.17 -0.04,-0.03 -0.08,-0.06 -0.11,-0.09 -0.06,-0.05 -0.13,-0.1 -0.19,-0.14 -0.04,-0.03 -0.08,-0.06 -0.12,-0.09 -0.06,-0.04 -0.12,-0.09 -0.18,-0.13 -0.04,-0.03 -0.09,-0.06 -0.13,-0.09 -0.03,-0.02 -0.06,-0.04 -0.09,-0.07 -0.02,-0.02 -0.05,-0.03 -0.07,-0.05 -0.07,-0.05 -0.14,-0.1 -0.21,-0.14 -0.05,-0.03 -0.09,-0.07 -0.14,-0.1 -0.07,-0.05 -0.14,-0.09 -0.21,-0.14 -0.05,-0.03 -0.09,-0.06 -0.14,-0.09 -0.08,-0.05 -0.16,-0.1 -0.24,-0.15 -0.04,-0.02 -0.08,-0.05 -0.11,-0.07 -0.12,-0.07 -0.24,-0.14 -0.35,-0.21 -0.1,-0.06 -0.2,-0.11 -0.3,-0.17 -0.03,-0.02 -0.05,-0.03 -0.08,-0.04 -0.08,-0.04 -0.16,-0.09 -0.24,-0.13 -0.02,-0.01 -0.04,-0.02 -0.06,-0.03 -0.1,-0.05 -0.19,-0.1 -0.29,-0.15 -0.02,-0.01 -0.05,-0.02 -0.07,-0.03 -0.08,-0.04 -0.16,-0.07 -0.23,-0.11 -0.03,-0.01 -0.05,-0.02 -0.08,-0.04 -0.1,-0.04 -0.19,-0.09 -0.29,-0.13 -0.01,-0 -0.02,-0.01 -0.03,-0.01 -0.06,-0.03 -0.13,-0.05 -0.19,-0.08 -0.02,-0.01 -0.03,-0.01 -0.05,-0.02 -0.06,-0.02 -0.12,-0.05 -0.18,-0.07 -0.05,-0.02 -0.1,-0.04 -0.15,-0.06 -0.06,-0.02 -0.12,-0.04 -0.18,-0.07 -0.05,-0.02 -0.1,-0.03 -0.14,-0.05 -0.06,-0.02 -0.13,-0.04 -0.19,-0.06 -0.05,-0.01 -0.09,-0.03 -0.14,-0.04 -0.07,-0.02 -0.13,-0.04 -0.2,-0.06 -0.04,-0.01 -0.08,-0.03 -0.13,-0.04 -0.07,-0.02 -0.15,-0.04 -0.22,-0.06 -0.03,-0.01 -0.07,-0.02 -0.1,-0.03 -0.11,-0.03 -0.21,-0.05 -0.31,-0.07 -0.01,-0 -0.02,-0 -0.04,-0.01 -0.09,-0.02 -0.18,-0.04 -0.27,-0.05 -0.04,-0.01 -0.07,-0.01 -0.11,-0.02 -0.07,-0.01 -0.13,-0.02 -0.2,-0.03 -0.04,-0.01 -0.08,-0.01 -0.12,-0.02 -0.06,-0.01 -0.12,-0.02 -0.18,-0.02 -0.04,-0 -0.09,-0.01 -0.13,-0.01 -0.06,-0.01 -0.11,-0.01 -0.17,-0.02 -0.04,-0 -0.09,-0.01 -0.13,-0.01 -0.06,-0 -0.11,-0.01 -0.17,-0.01 -0.04,-0 -0.09,-0 -0.13,-0 -0.05,-0 -0.11,-0 -0.16,-0 -0.04,-0 -0.09,-0 -0.13,-0 -0.05,0 -0.11,0 -0.16,0 -0.04,0 -0.09,0 -0.13,0 -0.05,0 -0.1,0 -0.15,0.01 -0.04,0 -0.09,0.01 -0.13,0.01 -0.05,0 -0.1,0.01 -0.15,0.01 -0.04,0 -0.08,0.01 -0.13,0.01 -0.05,0.01 -0.1,0.01 -0.15,0.02 -0.02,0 -0.05,0.01 -0.07,0.01 -0.02,0 -0.03,0.01 -0.05,0.01 -0.06,0.01 -0.13,0.02 -0.19,0.03 -0.03,0.01 -0.07,0.01 -0.1,0.02 -0.08,0.02 -0.15,0.03 -0.23,0.05 -0.02,0 -0.04,0.01 -0.05,0.01 -0.09,0.02 -0.18,0.05 -0.27,0.07 -0.03,0.01 -0.05,0.02 -0.08,0.02 -0.07,0.02 -0.13,0.04 -0.19,0.06 -0.03,0.01 -0.07,0.02 -0.1,0.03 -0.06,0.02 -0.11,0.04 -0.17,0.06 -0.03,0.01 -0.07,0.03 -0.1,0.04 -0.05,0.02 -0.11,0.05 -0.16,0.07 -0.03,0.01 -0.06,0.03 -0.1,0.04 -0.06,0.03 -0.11,0.05 -0.17,0.08 -0.03,0.01 -0.05,0.03 -0.08,0.04 -0.08,0.04 -0.16,0.09 -0.24,0.13 -0,0 -0,0 -0,0l-4.36 2.54c0.08,-0.05 0.16,-0.09 0.24,-0.13 0.03,-0.01 0.05,-0.03 0.08,-0.04 0.06,-0.03 0.11,-0.06 0.17,-0.08 0.03,-0.01 0.06,-0.03 0.1,-0.04 0.05,-0.02 0.11,-0.05 0.16,-0.07 0.03,-0.01 0.07,-0.03 0.1,-0.04 0.06,-0.02 0.11,-0.04 0.17,-0.06 0.03,-0.01 0.06,-0.02 0.1,-0.03 0.06,-0.02 0.13,-0.04 0.19,-0.06 0.03,-0.01 0.05,-0.02 0.08,-0.02 0.09,-0.03 0.18,-0.05 0.27,-0.07 0.02,-0 0.04,-0.01 0.05,-0.01 0.08,-0.02 0.15,-0.03 0.23,-0.05 0.03,-0.01 0.07,-0.01 0.1,-0.02 0.06,-0.01 0.13,-0.02 0.19,-0.03 0.04,-0.01 0.08,-0.01 0.12,-0.02 0.05,-0.01 0.1,-0.01 0.15,-0.02 0.04,-0 0.08,-0.01 0.13,-0.01 0.05,-0 0.1,-0.01 0.15,-0.01 0.04,-0 0.09,-0.01 0.13,-0.01 0.05,-0 0.1,-0.01 0.15,-0.01 0.04,-0 0.09,-0 0.13,-0 0.05,-0 0.1,-0 0.16,-0 0.04,-0 0.09,-0 0.13,0 0.05,0 0.11,0 0.16,0 0.04,0 0.09,0 0.13,0 0.05,0 0.11,0.01 0.17,0.01 0.04,0 0.09,0.01 0.13,0.01 0.06,0 0.11,0.01 0.17,0.02 0.04,0 0.09,0.01 0.13,0.01 0.06,0.01 0.12,0.02 0.18,0.02 0.04,0.01 0.08,0.01 0.12,0.02 0.07,0.01 0.13,0.02 0.2,0.03 0.04,0.01 0.07,0.01 0.11,0.02 0.09,0.02 0.18,0.04 0.27,0.05 0.01,0 0.02,0 0.04,0.01 0.1,0.02 0.21,0.05 0.31,0.07 0.03,0.01 0.07,0.02 0.1,0.03 0.07,0.02 0.15,0.04 0.22,0.06 0.04,0.01 0.08,0.02 0.13,0.04 0.07,0.02 0.13,0.04 0.2,0.06 0.05,0.01 0.09,0.03 0.14,0.04 0.06,0.02 0.12,0.04 0.19,0.06 0.05,0.02 0.1,0.03 0.14,0.05 0.06,0.02 0.12,0.04 0.18,0.07 0.05,0.02 0.1,0.04 0.15,0.06 0.06,0.02 0.12,0.05 0.18,0.07 0.08,0.03 0.16,0.07 0.24,0.1 0.01,0 0.02,0.01 0.03,0.01 0.1,0.04 0.19,0.08 0.29,0.13 0.03,0.01 0.05,0.02 0.08,0.04 0.08,0.04 0.16,0.07 0.23,0.11 0.02,0.01 0.05,0.02 0.07,0.03 0.1,0.05 0.19,0.1 0.29,0.15 0.02,0.01 0.04,0.02 0.06,0.03 0.08,0.04 0.16,0.09 0.24,0.13 0.03,0.01 0.05,0.03 0.08,0.04 0.1,0.05 0.2,0.11 0.3,0.17 0.12,0.07 0.24,0.14 0.35,0.21 0.04,0.02 0.08,0.05 0.12,0.07 0.08,0.05 0.16,0.1 0.24,0.15 0.05,0.03 0.09,0.06 0.14,0.09 0.07,0.05 0.14,0.09 0.21,0.14 0.05,0.03 0.1,0.06 0.14,0.1 0.07,0.05 0.14,0.09 0.2,0.14 0.05,0.04 0.11,0.08 0.16,0.12 0.04,0.03 0.09,0.06 0.13,0.09 0.06,0.04 0.12,0.09 0.18,0.13 0.04,0.03 0.08,0.06 0.12,0.09 0.06,0.05 0.13,0.1 0.19,0.14 0.04,0.03 0.08,0.06 0.11,0.09 0.07,0.06 0.14,0.11 0.21,0.17 0.03,0.02 0.06,0.04 0.08,0.07 0.1,0.08 0.2,0.16 0.3,0.25 0.02,0.02 0.04,0.03 0.06,0.05 0.08,0.07 0.16,0.13 0.24,0.2 0.03,0.03 0.07,0.06 0.1,0.09 0.06,0.06 0.13,0.11 0.19,0.17 0.04,0.03 0.08,0.07 0.12,0.11 0.06,0.05 0.12,0.11 0.18,0.16 0.03,0.03 0.07,0.06 0.1,0.09 0.06,0.06 0.12,0.12 0.18,0.17 0.03,0.03 0.06,0.06 0.1,0.09 0.07,0.07 0.13,0.13 0.2,0.2 0.02,0.02 0.05,0.05 0.07,0.07 0.09,0.09 0.18,0.18 0.27,0.27 0.02,0.02 0.04,0.04 0.06,0.06 0.07,0.07 0.14,0.15 0.21,0.22 0.03,0.03 0.06,0.07 0.09,0.1 0.06,0.06 0.12,0.13 0.18,0.19 0.03,0.04 0.06,0.07 0.1,0.11 0.06,0.07 0.12,0.13 0.18,0.2 0.03,0.03 0.06,0.07 0.09,0.1 0.07,0.08 0.13,0.15 0.2,0.23 0.02,0.02 0.04,0.05 0.06,0.07 0.09,0.1 0.17,0.2 0.26,0.3 0.02,0.03 0.04,0.05 0.07,0.08 0.06,0.08 0.13,0.15 0.19,0.23 0.03,0.04 0.06,0.07 0.09,0.11 0.05,0.07 0.11,0.13 0.16,0.2 0.03,0.04 0.06,0.08 0.09,0.12 0.05,0.07 0.1,0.13 0.16,0.2 0.03,0.04 0.06,0.08 0.09,0.12 0.06,0.07 0.11,0.15 0.16,0.22 0.03,0.03 0.05,0.07 0.08,0.1 0.08,0.11 0.16,0.22 0.24,0.32 0.01,0.01 0.01,0.02 0.02,0.03 0.08,0.11 0.15,0.21 0.23,0.32 0.03,0.04 0.06,0.08 0.08,0.12 0.05,0.08 0.11,0.15 0.16,0.23 0.03,0.05 0.06,0.1 0.1,0.15 0.05,0.07 0.1,0.14 0.14,0.21 0.03,0.05 0.07,0.1 0.1,0.16 0.04,0.07 0.09,0.14 0.13,0.21 0.03,0.05 0.07,0.11 0.1,0.16 0.04,0.07 0.08,0.13 0.13,0.2 0.04,0.06 0.07,0.12 0.1,0.17 0.04,0.07 0.08,0.13 0.12,0.2 0.04,0.06 0.07,0.12 0.1,0.18 0.04,0.07 0.08,0.13 0.11,0.2 0.03,0.06 0.07,0.12 0.1,0.18 0.04,0.07 0.07,0.13 0.11,0.2 0.03,0.05 0.05,0.1 0.08,0.14 0.04,0.08 0.09,0.15 0.13,0.23 0.03,0.05 0.06,0.11 0.09,0.16 0.04,0.07 0.08,0.14 0.12,0.22 0.03,0.06 0.06,0.11 0.09,0.17 0.04,0.07 0.07,0.14 0.11,0.21 0.03,0.06 0.06,0.12 0.09,0.17 0.03,0.07 0.07,0.14 0.1,0.21 0.03,0.06 0.06,0.12 0.08,0.18 0.03,0.07 0.07,0.14 0.1,0.21 0.03,0.06 0.06,0.12 0.08,0.18 0.03,0.07 0.06,0.14 0.1,0.21 0.03,0.06 0.05,0.12 0.08,0.18 0.03,0.07 0.06,0.14 0.09,0.21 0.03,0.06 0.05,0.12 0.08,0.18 0.03,0.07 0.06,0.14 0.09,0.21 0.03,0.06 0.05,0.12 0.08,0.18 0.03,0.07 0.06,0.14 0.08,0.21 0.03,0.06 0.05,0.12 0.07,0.19 0.03,0.07 0.05,0.14 0.08,0.21 0.02,0.06 0.05,0.12 0.07,0.19 0.03,0.07 0.05,0.14 0.08,0.21 0.02,0.06 0.05,0.12 0.07,0.19 0.03,0.07 0.05,0.14 0.07,0.21 0.02,0.06 0.04,0.12 0.07,0.19 0.02,0.07 0.05,0.14 0.07,0.21 0.02,0.06 0.04,0.13 0.06,0.19 0.02,0.07 0.05,0.14 0.07,0.21 0.02,0.06 0.04,0.13 0.06,0.19 0.02,0.07 0.04,0.14 0.06,0.21 0.02,0.06 0.04,0.13 0.06,0.19 0.02,0.07 0.04,0.14 0.06,0.21 0.02,0.06 0.04,0.13 0.05,0.19 0.02,0.07 0.04,0.14 0.06,0.21 0.02,0.06 0.03,0.13 0.05,0.19 0.02,0.07 0.04,0.14 0.05,0.21 0.02,0.06 0.03,0.13 0.05,0.19 0.02,0.07 0.03,0.14 0.05,0.21 0.01,0.06 0.03,0.13 0.04,0.19 0.02,0.07 0.03,0.14 0.05,0.21 0.01,0.06 0.03,0.12 0.04,0.19 0.01,0.07 0.03,0.14 0.04,0.21 0.01,0.06 0.03,0.12 0.04,0.19 0.01,0.07 0.03,0.14 0.04,0.21 0.01,0.06 0.02,0.12 0.03,0.18 0.01,0.07 0.02,0.14 0.04,0.21 0.01,0.06 0.02,0.12 0.03,0.18 0.01,0.07 0.02,0.14 0.03,0.21 0.01,0.06 0.02,0.12 0.03,0.18 0.01,0.07 0.02,0.14 0.03,0.21 0.01,0.06 0.02,0.12 0.02,0.18 0.01,0.07 0.02,0.14 0.02,0.21 0.01,0.06 0.01,0.12 0.02,0.18 0.01,0.07 0.01,0.14 0.02,0.21 0,0.06 0.01,0.11 0.02,0.17 0.01,0.07 0.01,0.15 0.02,0.22 0,0.05 0.01,0.11 0.01,0.16 0,0.08 0.01,0.15 0.01,0.23 0,0.05 0.01,0.1 0.01,0.15 0,0.08 0.01,0.17 0.01,0.25 0,0.04 0,0.09 0,0.13 0,0.13 0,0.25 0,0.38 -0.01,4.05 -1.44,6.9 -3.75,8.24l4.36 -2.54c2.31,-1.34 3.74,-4.19 3.75,-8.24 0,-0.13 -0,-0.25 -0,-0.38z"/>
      </g>
      <g>
       <path class="fil7" d="M47.44 71.9c7.09,4.1 12.83,14.02 12.8,22.17 -0.02,8.15 -5.79,11.44 -12.89,7.34 -7.09,-4.1 -12.82,-14.02 -12.8,-22.17 0.02,-8.15 5.79,-11.44 12.89,-7.34z"/>
      </g>
      <path class="fil9" d="M54.87 82.4c-1.98,-3.43 -4.62,-6.22 -7.44,-7.84 -2.81,-1.62 -5.46,-1.89 -7.46,-0.75 -2,1.14 -3.1,3.54 -3.11,6.78 -0.01,3.23 1.08,6.9 3.06,10.34 1.98,3.43 4.62,6.22 7.44,7.84 2.81,1.62 5.46,1.89 7.46,0.76 2,-1.14 3.1,-3.54 3.11,-6.78 0.01,-3.23 -1.08,-6.9 -3.06,-10.34zm-7.5 15.57l0 0c-5.43,-3.14 -9.83,-10.76 -9.82,-17 0.02,-6.24 4.45,-8.77 9.88,-5.63 5.43,3.14 9.83,10.76 9.82,17 -0.02,6.24 -4.45,8.77 -9.88,5.63z"/>
     </g>
    </g>
    <path class="fil10" d="M73.05 67.62c0.2,0.38 0.3,0.83 0.3,1.38 0,0.5 -0.08,0.94 -0.27,1.33 -0.19,0.39 -0.47,0.69 -0.86,0.89 -0.38,0.2 -0.81,0.3 -1.3,0.3 -0.34,0 -0.69,-0.03 -1.03,-0.11 -0.34,-0.08 -0.6,-0.2 -0.76,-0.37 0.19,-0.04 0.36,-0.14 0.49,-0.28 0.13,-0.13 0.2,-0.31 0.2,-0.53 0,-0.18 -0.06,-0.33 -0.14,-0.46 -0.09,-0.12 -0.21,-0.22 -0.37,-0.29 -0.16,-0.08 -0.36,-0.11 -0.59,-0.11 -0.23,0 -0.43,0.04 -0.59,0.11 -0.16,0.07 -0.28,0.17 -0.37,0.29 -0.1,0.12 -0.14,0.28 -0.14,0.46 0,0.5 0.26,0.95 0.78,1.39 0.53,0.43 1.37,0.64 2.52,0.64 0.78,0 1.51,-0.12 2.18,-0.38 0.68,-0.25 1.18,-0.65 1.51,-1.17 0.33,-0.52 0.5,-1.09 0.5,-1.7 0,-0.28 -0.06,-0.58 -0.14,-0.92 -0.09,-0.34 -0.29,-0.7 -0.59,-1.08 -0.3,-0.38 -0.73,-0.68 -1.28,-0.89 -0.54,-0.22 -1.04,-0.33 -1.48,-0.33 -0.27,0.02 -0.53,0.07 -0.77,0.14l4.07 -3.18 -0.65 -0.51 -6.66 0.01 0 -2.23 -0.64 -0.25 -1.71 0 0 0.38 0.59 0.46 0 1.66 -2.58 0 0 0.73 2.57 0 0 3.93c0,0.56 0.21,1.02 0.63,1.35 0.43,0.33 1.17,0.5 2.27,0.5 0.44,0 0.84,-0.1 1.21,-0.29 0.37,-0.19 0.65,-0.46 0.86,-0.83 0.01,-0.09 0.04,-0.15 0.04,-0.2 0,-0.1 -0.04,-0.19 -0.13,-0.27 -0.1,-0.06 -0.17,-0.08 -0.24,-0.08 -0.04,0 -0.07,0.01 -0.11,0.03 -0.03,0.01 -0.06,0.04 -0.09,0.09 -0.2,0.21 -0.43,0.4 -0.7,0.55 -0.27,0.15 -0.54,0.23 -0.84,0.23 -0.37,0 -0.65,-0.1 -0.84,-0.31 -0.18,-0.21 -0.27,-0.48 -0.27,-0.8l0 -3.91 5.03 0 -3.63 3.77 0 0.31 0.8 -0.3c0.44,-0.19 0.8,-0.29 1.1,-0.29 0.46,0 0.87,0.09 1.25,0.28 0.38,0.18 0.67,0.46 0.87,0.85z"/>
   </g>
   <path class="fil10" d="M47.75 90.49l-0.84 -0.66 -0.15 -3.07 0.54 0.39c0.18,0.11 1.03,0.9 1.21,1.11 0.41,0.47 0.96,1.27 0.99,1.94 0.04,0.8 -0.05,1 -0.59,0.92 -0.27,-0.04 -0.78,-0.34 -1.17,-0.64zm-0.47 -4.73l-0.59 -0.46 -0.13 -2.8c0.56,0.44 1.24,0.92 1.74,1.63 0.71,1.01 0.8,2.35 0.09,2.25 -0.25,-0.04 -0.73,-0.32 -1.1,-0.61zm-1.79 -5.69l-1.94 -1.52 0.07 1.57 0.84 0.66c0.18,0.14 0.42,0.61 0.44,0.99l0.3 6.21c0.03,0.69 -0.47,0.13 -1.05,-0.32 0.01,0.25 -0.11,1.25 -0.1,1.58l1.94 1.52 0.11 2.36 0.92 0.72c0.06,0.05 0.08,0.03 0.07,-0.05l-0.11 -2.21 0.74 0.58 0.11 2.32 0.99 0.78 -0.11 -2.36c0.4,0.32 0.82,0.56 1.15,0.7 0.68,0.29 1.17,0.31 1.44,-0.39 0.26,-0.67 0.24,-2.18 -0.3,-3.42 -0.1,-0.23 -0.31,-0.61 -0.44,-0.8 -0.11,-0.17 -0.42,-0.62 -0.57,-0.74l-0 -0.07c0.2,0.09 0.43,-0.12 0.52,-0.28 0.27,-0.46 0.21,-1.59 -0.06,-2.46 -0.12,-0.37 -0.35,-0.91 -0.55,-1.22 -0.47,-0.75 -1.02,-1.4 -1.69,-2.01l-0.09 -1.8c-0.03,-0.66 0.15,-0.39 -1.02,-1.3l0.11 2.24 -0.74 -0.54 -0.1 -2.17c-0,-0.09 -0.02,-0.13 -0.08,-0.17l-0.92 -0.72 0.11 2.32z"/>
  </g>
 </g>
</svg>
