<?xml version="1.0" encoding="UTF-8"?>
<!DOCTYPE svg PUBLIC "-//W3C//DTD SVG 1.1//EN" "http://www.w3.org/Graphics/SVG/1.1/DTD/svg11.dtd">
<!-- Creator: CorelDRAW 2017 -->
<svg xmlns="http://www.w3.org/2000/svg" xml:space="preserve" width="30.331in" height="9.98572in" version="1.1" style="shape-rendering:geometricPrecision; text-rendering:geometricPrecision; image-rendering:optimizeQuality; fill-rule:evenodd; clip-rule:evenodd"
viewBox="0 0 70979 23368"
 xmlns:xlink="http://www.w3.org/1999/xlink">
 <defs>
  <style type="text/css">
   <![CDATA[
    .fil0 {fill:white}
   ]]>
  </style>
 </defs>
 <g id="Layer_x0020_1">
  <metadata id="CorelCorpID_0Corel-Layer"/>
  <path class="fil0" d="M12624 23368l2175 -3767 2175 -3767 -4350 0 -4350 0 2175 3767 2175 3767zm30400 -17010l-3692 7805 -3670 -7805 1057 0 2612 5756 2637 -5756 1055 0zm20675 11437l0 1988c0,35 29,65 65,65l602 0c331,0 600,-106 789,-288 194,-188 301,-454 301,-768 0,-315 -110,-582 -305,-769 -192,-185 -464,-292 -794,-292l-593 0c-36,0 -65,29 -65,65zm653 1702l-280 0 0 -1417 288 0c214,0 392,73 516,197 125,125 197,304 197,515 0,210 -71,388 -198,512 -124,122 -303,193 -524,193zm-4633 63c189,191 455,304 764,304 300,0 567,-111 758,-307 185,-188 297,-454 297,-769 0,-317 -112,-582 -297,-771 -191,-196 -459,-308 -759,-308 -308,0 -575,113 -764,305 -188,191 -300,460 -300,773 0,313 112,581 300,772zm764 -55c-197,0 -367,-75 -486,-201 -122,-127 -194,-308 -194,-515 0,-208 72,-390 193,-518 120,-126 290,-202 487,-202 190,0 360,75 481,204 118,126 191,304 191,516 0,210 -72,388 -192,513 -120,128 -290,203 -480,203zm-4958 55c190,191 457,304 765,304 300,0 568,-111 759,-307 185,-188 297,-454 297,-769 0,-317 -112,-582 -297,-771 -190,-196 -458,-308 -759,-308 -308,0 -574,113 -764,305 -188,191 -301,460 -301,773 0,313 112,581 300,772zm765 -55c-197,0 -367,-75 -487,-201 -121,-127 -194,-308 -194,-515 0,-208 72,-390 194,-518 120,-126 290,-202 487,-202 190,0 360,75 481,204 119,126 191,304 191,516 0,210 -73,388 -191,513 -121,128 -291,203 -481,203zm-5072 -714c0,320 109,584 292,770 190,192 458,300 766,300 158,0 311,-25 448,-69 142,-46 267,-113 367,-198 15,-13 23,-31 23,-49l0 -787c0,-36 -29,-64 -64,-64l-821 0c-36,0 -64,28 -64,64l0 222c0,36 29,64 64,64l512 0 0 331c-60,41 -126,73 -197,95 -84,26 -174,39 -268,39 -202,0 -369,-73 -486,-197 -120,-127 -189,-309 -189,-520 0,-217 69,-396 184,-521 118,-127 286,-199 479,-199 109,0 208,18 299,53 90,35 172,88 246,158 24,24 64,24 89,0l169 -150c26,-23 29,-64 4,-93 -108,-111 -230,-192 -362,-246 -142,-58 -292,-85 -440,-85 -315,0 -575,111 -758,300 -187,193 -292,465 -292,781zm-6201 -3c0,313 112,581 300,772 190,191 456,304 764,304 300,0 568,-111 759,-307 185,-188 297,-454 297,-769 0,-317 -112,-582 -297,-771 -191,-196 -458,-308 -759,-308 -308,0 -574,113 -764,305 -189,191 -301,460 -301,773zm1064 717c-197,0 -366,-75 -487,-201 -121,-127 -193,-308 -193,-515 0,-208 72,-390 193,-518 121,-126 290,-202 487,-202 190,0 360,75 480,204 119,126 191,304 191,516 0,210 -72,388 -191,513 -121,128 -290,203 -480,203zm-3717 -201c-124,122 -302,193 -524,193l-280 0 0 -1417 288 0c213,0 392,73 516,197 126,125 198,304 198,515 0,210 -71,388 -199,512zm-1176 -1509l0 1988c0,35 29,65 65,65l602 0c331,0 601,-106 789,-288 194,-188 301,-454 301,-768 0,-315 -109,-582 -305,-769 -191,-185 -463,-292 -793,-292l-593 0c-36,0 -65,29 -65,65zm7227 -3834l-975 0 0 -7603 975 0 0 7603zm9921 -3025l-1452 -2934 -1046 2114 -775 1546 -5 0 -244 497 -7 13 -878 1789 -1078 0 4033 -7814 4025 7814 -1078 0 -928 -1870 -212 -430 -358 -726 2 0zm12644 -4578l-4634 6807 4367 0 0 796 -5979 0 4658 -6806 -4136 0 0 -797 5724 0zm-58355 -6358l3808 6596 3809 6596 -7617 0 -7617 0 3808 -6596 3809 -6596zm-12624 1504l2175 3767 2175 3767 2175 -3767 2175 -3767 -4349 0 -4350 0zm25247 0l-4350 0 -4349 0 2175 3767 2175 3767 2175 -3767 2175 -3767z"/>
 </g>
</svg>
