<?xml version="1.0" encoding="UTF-8"?>
<!DOCTYPE svg PUBLIC "-//W3C//DTD SVG 1.1//EN" "http://www.w3.org/Graphics/SVG/1.1/DTD/svg11.dtd">
<!-- Creator: CorelDRAW 2017 -->
<svg xmlns="http://www.w3.org/2000/svg" xml:space="preserve" width="3.35585in" height="3.35585in" version="1.1" style="shape-rendering:geometricPrecision; text-rendering:geometricPrecision; image-rendering:optimizeQuality; fill-rule:evenodd; clip-rule:evenodd"
viewBox="0 0 1763 1763"
 xmlns:xlink="http://www.w3.org/1999/xlink">
 <defs>
  <style type="text/css">
   <![CDATA[
    .fil4 {fill:#A9C9DD}
    .fil3 {fill:#C8DAEA}
    .fil2 {fill:#F2F8FC}
    .fil0 {fill:white;fill-opacity:0.168627}
    .fil1 {fill:url(#id0)}
   ]]>
  </style>
  <linearGradient id="id0" gradientUnits="userSpaceOnUse" x1="889" y1="404" x2="889" y2="1339">
   <stop offset="0" style="stop-opacity:1; stop-color:#37AEE2"/>
   <stop offset="1" style="stop-opacity:1; stop-color:#1E96C8"/>
  </linearGradient>
 </defs>
 <g id="Layer_x0020_1">
  <metadata id="CorelCorpID_0Corel-Layer"/>
  <g id="_2927642293280">
   <path class="fil0" d="M882 0c487,0 882,395 882,882 0,487 -395,882 -882,882 -487,0 -882,-395 -882,-882 0,-487 395,-882 882,-882z"/>
   <path class="fil0" d="M882 92c436,0 789,353 789,789 0,436 -353,789 -789,789 -436,0 -789,-353 -789,-789 0,-436 353,-789 789,-789z"/>
   <circle class="fil1" cx="882" cy="882" r="686"/>
   <g>
    <path class="fil2" d="M886 695l-293 114c-17,7 -110,33 -79,63 9,8 22,11 35,16 26,8 52,16 78,24 13,4 26,8 39,12 11,4 27,9 38,11 10,-2 338,-212 391,-245 7,-4 21,-14 31,-6 1,10 -26,29 -37,40l-52 46c-19,18 -42,37 -61,55l-62 55c-20,17 -53,49 -72,65 -4,3 -6,6 -10,9 -7,6 -27,23 -31,28 15,10 72,53 92,68l13 9c0,0 1,0 1,1 24,21 131,97 160,119 23,17 53,28 68,-6 6,-15 25,-115 32,-141 6,-36 15,-74 23,-110l46 -216c5,-23 23,-92 19,-112 -3,-18 -16,-31 -38,-27 -11,2 -212,80 -236,90 -15,6 -86,34 -96,36z"/>
    <path class="fil3" d="M703 934c5,6 16,46 19,58l36 118c12,38 9,46 31,46l13 -175c3,-5 24,-23 31,-28 4,-3 6,-6 10,-9 19,-16 52,-48 72,-65l62 -55c19,-18 41,-37 61,-55l52 -46c11,-11 38,-30 37,-40 -10,-8 -24,2 -31,6 -54,33 -381,243 -391,245z"/>
    <path class="fil4" d="M789 1158c18,-1 27,-9 36,-18l42 -40c8,-8 33,-37 42,-39 0,0 -1,-1 -1,-1l-13 -9c-20,-15 -77,-59 -92,-68l-13 175z"/>
   </g>
  </g>
 </g>
</svg>
