<svg xmlns="http://www.w3.org/2000/svg" xmlns:xlink="http://www.w3.org/1999/xlink" viewBox="0 0 65.9 65.9"><defs><style>.cls-1{fill:none;clip-rule:evenodd;}.cls-2,.cls-3{fill:#3c91fa;fill-rule:evenodd;}.cls-2{opacity:0.15;}.cls-3{opacity:0.36;}.cls-4{clip-path:url(#clip-path);}.cls-5{fill:url(#linear-gradient);}.cls-6{fill:#fff;}</style><clipPath id="clip-path"><path class="cls-1" d="M33,55.58A22.63,22.63,0,1,0,10.32,33,22.63,22.63,0,0,0,33,55.58"/></clipPath><linearGradient id="linear-gradient" x1="54.61" y1="26.61" x2="11.95" y2="39.1" gradientUnits="userSpaceOnUse"><stop offset="0" stop-color="#402dd5"/><stop offset="1" stop-color="#0776fb"/></linearGradient></defs><title>Asset 35</title><g id="Layer_2" data-name="Layer 2"><g id="Layer_1-2" data-name="Layer 1"><path class="cls-2" d="M33,65.9A33,33,0,1,0,0,33a33,33,0,0,0,33,33"/><path class="cls-3" d="M33,60.62A27.67,27.67,0,1,0,5.28,33,27.67,27.67,0,0,0,33,60.62"/><g class="cls-4"><rect class="cls-5" x="10.32" y="10.32" width="45.26" height="45.26"/></g><path class="cls-6" d="M33.41,26.88,37,30.51a.64.64,0,1,1-.91.91L33.6,28.89v9.66a.65.65,0,0,1-1.3,0V28.9l-2.53,2.53a.64.64,0,1,1-.91-.91l3.63-3.63a.66.66,0,0,1,.92,0"/></g></g></svg>