<?xml version="1.0" encoding="UTF-8"?>
<!DOCTYPE svg PUBLIC "-//W3C//DTD SVG 1.1//EN" "http://www.w3.org/Graphics/SVG/1.1/DTD/svg11.dtd">
<!-- Creator: CorelDRAW 2017 -->
<svg xmlns="http://www.w3.org/2000/svg" xml:space="preserve" width="2.89488in" height="3.62717in" version="1.1" style="shape-rendering:geometricPrecision; text-rendering:geometricPrecision; image-rendering:optimizeQuality; fill-rule:evenodd; clip-rule:evenodd"
viewBox="0 0 111.62 139.85"
 xmlns:xlink="http://www.w3.org/1999/xlink">
 <defs>
  <style type="text/css">
   <![CDATA[
    .fil12 {fill:#5CC9E8}
    .fil13 {fill:#3C91FA}
    .fil5 {fill:#8EEEF5}
    .fil6 {fill:#0776FB;fill-rule:nonzero}
    .fil7 {fill:#3936DA;fill-rule:nonzero}
    .fil8 {fill:#3C91FA;fill-rule:nonzero}
    .fil11 {fill:#402DD5;fill-rule:nonzero}
    .fil10 {fill:#6262FC;fill-rule:nonzero}
    .fil9 {fill:#BCECFF;fill-rule:nonzero}
    .fil4 {fill:#C3D1D4;fill-rule:nonzero}
    .fil3 {fill:#E4EAF2;fill-rule:nonzero}
    .fil2 {fill:#F7FBFF;fill-rule:nonzero}
    .fil14 {fill:white;fill-rule:nonzero}
    .fil0 {fill:aqua;fill-rule:nonzero;fill-opacity:0.050980}
    .fil1 {fill:#54F2F2;fill-rule:nonzero;fill-opacity:0.109804}
   ]]>
  </style>
    <mask id="id0">
  <linearGradient id="id1" gradientUnits="userSpaceOnUse" x1="56.25" y1="78.04" x2="56.25" y2="18.47">
   <stop offset="0" style="stop-opacity:1; stop-color:white"/>
   <stop offset="1" style="stop-opacity:0; stop-color:white"/>
  </linearGradient>
     <rect style="fill:url(#id1)" x="37.26" y="-0.13" width="37.09" height="82.47"/>
    </mask>
 </defs>
 <g id="Layer_x0020_1">
  <metadata id="CorelCorpID_0Corel-Layer"/>
  <g id="_2474108036736">
   <g>
    <polygon class="fil0" points="-0,107.64 55.88,75.46 111.62,107.64 55.82,139.85 "/>
    <polygon class="fil1" points="-0,99.19 55.88,67.01 111.62,99.19 55.82,131.41 "/>
   </g>
   <g>
    <polygon class="fil2" points="-0,81.95 55.88,49.77 111.62,81.95 55.82,114.16 "/>
    <polygon class="fil3" points="-0,81.95 -0,90.01 55.85,122.25 111.62,90.01 111.62,81.95 55.82,114.16 "/>
    <polygon class="fil4" points="55.82,114.16 55.85,122.25 111.62,90.01 111.62,81.95 "/>
   </g>
   <polygon class="fil5" style="mask:url(#id0)" points="37.4,82.2 74.22,82.2 74.22,0 37.4,0 "/>
   <g>
    <polygon class="fil6" points="34.42,44.32 34.42,80.55 64.36,97.83 77.2,90.42 77.2,54.2 64.36,61.61 "/>
    <polygon class="fil7" points="77.2,54.2 77.2,90.42 64.36,97.83 64.36,61.61 "/>
    <polygon class="fil6" points="32.99,41.85 47.25,33.62 78.62,51.73 77.2,54.2 64.36,61.61 34.42,44.32 "/>
    <polygon class="fil7" points="32.99,41.85 34.42,44.32 64.36,61.61 64.36,59.96 "/>
    <polygon class="fil7" points="64.36,61.61 77.2,54.2 78.62,51.73 64.36,59.96 "/>
    <polygon class="fil7" points="35.85,41.85 47.25,35.27 75.77,51.73 64.36,58.32 "/>
    <polygon class="fil8" points="37.27,42.68 47.25,36.91 47.25,35.27 35.85,41.85 "/>
    <polygon class="fil8" points="47.25,36.91 74.35,52.56 75.77,51.73 47.25,35.27 "/>
    <polygon class="fil9" points="37.27,55.85 37.27,49.26 40.12,50.91 40.12,57.49 "/>
    <polygon class="fil9" points="42.62,58.94 42.62,52.35 45.47,54 45.47,60.58 "/>
    <polygon class="fil9" points="47.97,62.02 47.97,55.44 50.82,57.08 50.82,63.67 "/>
    <polygon class="fil9" points="53.31,65.11 53.31,58.52 56.17,60.17 56.17,66.76 "/>
    <polygon class="fil9" points="58.66,68.2 58.66,61.61 61.51,63.26 61.51,69.84 "/>
    <polygon class="fil9" points="37.27,67.35 37.27,60.77 40.12,62.41 40.12,69 "/>
    <polygon class="fil9" points="42.62,66.21 42.62,63.85 45.47,65.5 45.47,67.86 "/>
    <polygon class="fil9" points="47.97,69.07 47.97,66.94 50.82,68.59 50.82,70.71 "/>
    <polygon class="fil9" points="53.31,72.1 53.31,70.03 56.17,71.67 56.17,73.75 "/>
    <polygon class="fil9" points="58.66,79.7 58.66,73.12 61.51,74.76 61.51,81.35 "/>
    <polygon class="fil9" points="37.27,78.86 37.27,72.27 40.12,73.92 40.12,80.5 "/>
    <polygon class="fil9" points="42.62,81.94 42.62,75.36 45.47,77 45.47,83.59 "/>
    <polygon class="fil9" points="47.97,85.03 47.97,78.44 50.82,80.09 50.82,86.68 "/>
    <polygon class="fil9" points="53.31,88.12 53.31,81.53 56.17,83.18 56.17,89.76 "/>
    <polygon class="fil9" points="58.66,91.2 58.66,84.62 61.51,86.27 61.51,92.85 "/>
    <polygon class="fil9" points="70.07,68.2 70.07,61.61 67.22,63.26 67.22,69.84 "/>
    <polygon class="fil9" points="74.35,65.73 74.35,59.14 71.49,60.79 71.49,67.37 "/>
    <polygon class="fil9" points="70.07,79.72 70.07,73.14 67.22,74.78 67.22,81.37 "/>
    <polygon class="fil9" points="74.35,77.25 74.35,70.67 71.49,72.31 71.49,78.9 "/>
    <polygon class="fil9" points="70.07,91.25 70.07,84.66 67.22,86.31 67.22,92.89 "/>
    <polygon class="fil9" points="74.35,88.78 74.35,82.19 71.49,83.84 71.49,90.42 "/>
    <polygon class="fil7" points="34.42,54.2 64.36,71.49 64.36,74.07 32.99,55.96 32.99,55.02 "/>
    <polygon class="fil8" points="64.36,71.49 77.16,64.06 78.62,64.9 64.36,73.12 32.99,55.02 34.42,54.2 "/>
    <polygon class="fil7" points="64.36,74.07 78.62,65.84 78.62,64.9 64.36,73.12 "/>
    <polygon class="fil7" points="34.42,65.73 64.36,83.01 64.36,85.59 32.99,67.48 32.99,66.55 "/>
    <polygon class="fil8" points="64.36,83.01 77.16,75.58 78.62,76.43 64.36,84.64 32.99,66.55 34.42,65.73 "/>
    <polygon class="fil7" points="64.36,85.59 78.62,77.36 78.62,76.43 64.36,84.64 "/>
    <polygon class="fil9" points="62.28,49.11 65.13,47.46 71.15,50.92 71.15,52.57 68.3,54.22 62.28,50.76 "/>
    <polygon class="fil6" points="62.28,49.11 62.28,50.76 68.3,54.22 68.3,52.57 "/>
    <polygon class="fil10" points="68.3,54.22 71.15,52.57 71.15,50.92 68.3,52.57 "/>
    <polygon class="fil9" points="57.6,51.99 60.45,50.34 66.46,53.8 66.46,55.45 63.61,57.1 57.6,53.64 "/>
    <polygon class="fil6" points="57.6,51.99 57.6,53.64 63.61,57.1 63.61,55.45 "/>
    <polygon class="fil10" points="63.61,57.1 66.46,55.45 66.46,53.8 63.61,55.45 "/>
    <polygon class="fil9" points="41.55,40.21 47.25,36.91 52.96,40.21 52.96,43.5 47.25,46.79 41.55,43.5 "/>
    <polygon class="fil6" points="41.55,40.21 41.55,43.5 47.25,46.79 47.25,43.5 "/>
    <polygon class="fil10" points="47.25,46.79 52.96,43.5 52.96,40.21 47.25,43.5 "/>
    <path class="fil10" d="M55.56 48.77l0 -0.9c0,-0.3 -0.2,-0.6 -0.59,-0.82 -0.78,-0.45 -2.07,-0.45 -2.85,0 -0.39,0.23 -0.59,0.52 -0.59,0.82l0 0.9c-0,0.3 0.2,0.6 0.59,0.82 0.78,0.45 2.07,0.45 2.85,0 0.39,-0.23 0.59,-0.52 0.59,-0.82l0 0z"/>
    <path class="fil9" d="M52.12 47.04c-0.78,0.45 -0.78,1.19 -0,1.65 0.78,0.45 2.07,0.45 2.85,0 0.79,-0.45 0.79,-1.19 0,-1.65 -0.78,-0.45 -2.07,-0.45 -2.85,0z"/>
    <path class="fil10" d="M59.83 46.3l0 -0.9c0,-0.3 -0.2,-0.6 -0.59,-0.82 -0.78,-0.45 -2.07,-0.45 -2.85,0 -0.39,0.23 -0.59,0.52 -0.59,0.82l0 0.9c-0,0.3 0.2,0.6 0.59,0.82 0.78,0.45 2.07,0.45 2.85,0 0.39,-0.23 0.59,-0.52 0.59,-0.82l0 0z"/>
    <path class="fil9" d="M56.39 44.58c-0.78,0.45 -0.78,1.19 -0,1.65 0.78,0.45 2.07,0.45 2.85,0 0.79,-0.45 0.79,-1.19 0,-1.65 -0.78,-0.45 -2.07,-0.45 -2.85,0z"/>
   </g>
   <g>
    <polygon class="fil11" points="40.65,73.34 40.65,67.06 55.42,75.58 55.42,81.87 "/>
    <polygon class="fil12" points="55.42,75.58 40.65,67.06 41.8,66.86 56.24,75.2 "/>
    <polygon class="fil13" points="56.17,81.33 56.24,75.2 55.42,75.58 55.42,81.87 "/>
   </g>
   <path class="fil14" d="M41.88 69.03l1.05 0.61c0.21,0.12 0.36,0.23 0.46,0.31 0.1,0.08 0.19,0.19 0.27,0.32 0.08,0.13 0.15,0.27 0.2,0.43 0.05,0.16 0.08,0.33 0.08,0.49 0,0.18 -0.03,0.32 -0.1,0.43 -0.07,0.11 -0.16,0.17 -0.27,0.17 0.16,0.16 0.28,0.35 0.37,0.56 0.09,0.21 0.13,0.43 0.13,0.65 0,0.17 -0.03,0.32 -0.08,0.45 -0.05,0.13 -0.13,0.22 -0.23,0.26 -0.09,0.04 -0.21,0.03 -0.36,-0.03 -0.09,-0.04 -0.3,-0.15 -0.64,-0.35l-0.89 -0.52 0 -3.79zm0.53 0.94l0 0.87 0.35 0.2c0.21,0.12 0.34,0.19 0.38,0.21 0.09,0.04 0.16,0.04 0.21,-0.01 0.05,-0.04 0.08,-0.13 0.08,-0.25 0,-0.12 -0.02,-0.23 -0.07,-0.32 -0.04,-0.1 -0.11,-0.19 -0.2,-0.25 -0.05,-0.04 -0.2,-0.13 -0.45,-0.28l-0.3 -0.18zm0 1.5l0 1.01 0.49 0.29c0.19,0.11 0.31,0.17 0.36,0.19 0.08,0.02 0.14,0.01 0.19,-0.04 0.05,-0.05 0.07,-0.14 0.07,-0.28 0,-0.12 -0.02,-0.22 -0.06,-0.32 -0.04,-0.1 -0.09,-0.19 -0.17,-0.27 -0.07,-0.08 -0.23,-0.19 -0.47,-0.33l-0.43 -0.25zm4.94 4.54l-0.57 -0.33 -0.23 -1 -1.05 -0.62 -0.22 0.73 -0.56 -0.33 1.02 -3.19 0.56 0.33 1.05 4.4zm-0.97 -2.07l-0.36 -1.61 -0.35 1.19 0.72 0.42zm2.1 2.72l0 -3.78 0.51 0.3 1.08 3.17 0 -2.54 0.49 0.29 0 3.78 -0.53 -0.31 -1.06 -3.11 0 2.49 -0.49 -0.29zm3.3 1.93l0 -3.78 0.53 0.31 0 1.68 1.07 -1.05 0.71 0.42 -0.99 0.9 1.04 2.92 -0.69 -0.4 -0.72 -2.2 -0.43 0.38 0 1.14 -0.53 -0.31z"/>
  </g>
 </g>
</svg>
