<svg xmlns="http://www.w3.org/2000/svg" viewBox="0 0 46.18 46.18"><defs><style>.cls-1,.cls-2{fill:#0776fb;}.cls-2{fill-rule:evenodd;}</style></defs><title>Asset 1 svg</title><g id="Layer_2" data-name="Layer 2"><g id="Layer_1-2" data-name="Layer 1"><path class="cls-1" d="M23.09,46.18A23.09,23.09,0,1,1,46.18,23.09,23.1,23.1,0,0,1,23.09,46.18m0-44.43A21.34,21.34,0,1,0,44.43,23.09,21.38,21.38,0,0,0,23.09,1.75Z"/><path class="cls-2" d="M28.57,19.59h-4V16.65c0-.9.93-1.11,1.36-1.11h2.6v-4l-3,0c-4.06,0-5,2.95-5,4.84v3.17H17.61v4.08h2.94v11h4v-11H28Z"/></g></g></svg>