<svg xmlns="http://www.w3.org/2000/svg" viewBox="0 0 46.18 46.18"><defs><style>.cls-1{fill:#0776fb;}</style></defs><title>Asset 9 svg</title><g id="Layer_2" data-name="Layer 2"><g id="Layer_1-2" data-name="Layer 1"><path class="cls-1" d="M23.09,46.18A23.09,23.09,0,1,1,46.18,23.09,23.1,23.1,0,0,1,23.09,46.18m0-44.43A21.34,21.34,0,1,0,44.43,23.09,21.38,21.38,0,0,0,23.09,1.75Z"/><path class="cls-1" d="M33.79,17.19a12.29,12.29,0,0,0-4.49-4.49,12.43,12.43,0,0,0-12.4,0,12.3,12.3,0,0,0-4.49,4.49,12.4,12.4,0,0,0,.7,13.46,12.1,12.1,0,0,0,6.09,4.46.72.72,0,0,0,.64-.11.63.63,0,0,0,.21-.48s0-.32,0-.87,0-1,0-1.43l-.37.06a4.59,4.59,0,0,1-.89.06,6.73,6.73,0,0,1-1.12-.11,2.51,2.51,0,0,1-1.08-.48,2,2,0,0,1-.71-1l-.16-.37a4,4,0,0,0-.51-.82,1.94,1.94,0,0,0-.7-.61l-.11-.08a1.23,1.23,0,0,1-.21-.19.83.83,0,0,1-.14-.22c0-.08,0-.14.08-.19a1,1,0,0,1,.47-.07l.32,0a2.34,2.34,0,0,1,.8.39,2.61,2.61,0,0,1,.78.84,2.84,2.84,0,0,0,.89,1,1.9,1.9,0,0,0,1.05.34,4.57,4.57,0,0,0,.92-.08,3.27,3.27,0,0,0,.72-.24,2.61,2.61,0,0,1,.79-1.66,11,11,0,0,1-1.65-.29,6.5,6.5,0,0,1-1.51-.63,4.34,4.34,0,0,1-1.3-1.08,5.17,5.17,0,0,1-.84-1.69,8,8,0,0,1-.33-2.41,4.69,4.69,0,0,1,1.27-3.31,4.32,4.32,0,0,1,.11-3.28,2.26,2.26,0,0,1,1.38.22,9.83,9.83,0,0,1,1.34.62l.68.44a11.6,11.6,0,0,1,6.18,0l.61-.39a8.71,8.71,0,0,1,1.48-.71,2.12,2.12,0,0,1,1.3-.18,4.29,4.29,0,0,1,.13,3.28A4.69,4.69,0,0,1,31,22.75a8.12,8.12,0,0,1-.33,2.42,5,5,0,0,1-.85,1.69,4.52,4.52,0,0,1-1.3,1.07,6.56,6.56,0,0,1-1.51.63,10.94,10.94,0,0,1-1.65.29,2.86,2.86,0,0,1,.84,2.28v3.39a.64.64,0,0,0,.2.48.7.7,0,0,0,.64.11,12.36,12.36,0,0,0,8.44-11.72,12.09,12.09,0,0,0-1.66-6.2"/></g></g></svg>