<svg xmlns="http://www.w3.org/2000/svg" viewBox="0 0 46.18 46.18"><defs><style>.cls-1,.cls-2{fill:#0776fb;}.cls-2{fill-rule:evenodd;}</style></defs><title>Asset 8 svg</title><g id="Layer_2" data-name="Layer 2"><g id="Layer_1-2" data-name="Layer 1"><path class="cls-1" d="M23.09,46.18A23.09,23.09,0,1,1,46.18,23.09,23.1,23.1,0,0,1,23.09,46.18m0-44.43A21.34,21.34,0,1,0,44.43,23.09,21.38,21.38,0,0,0,23.09,1.75Z"/><path class="cls-2" d="M28.92,25.69c.39-.63,5.13-8.16,5.14-8.5a15.59,15.59,0,0,0-1.8-.94l-3.65-1.83a7.68,7.68,0,0,0-1.87-.82l-4,6.52c-.42.67-.41.51-.15.95.48.79,4.43,7.29,4.63,7.45Zm-1.54,3.74a16.48,16.48,0,0,0,2,1l2,1c.65.33,1.33.69,2,1,.52.24.72,0,.73-.53,0-1.25,0-12.94,0-13.5l-1.69,2.71c-.93,1.52-2.54,4-3.39,5.52ZM20.05,25.8l6.7,3.32a14.32,14.32,0,0,0-.83-1.38l-2.52-4.09c-.55-.91-1.11-1.81-1.68-2.73-.26-.42-1.47-2.46-1.67-2.66ZM12.15,13.7a39.28,39.28,0,0,0-.1,5.15v7.84a6.83,6.83,0,0,0,.15,2.42,24.55,24.55,0,0,0,3.4,1.81c.58.3,1.16.57,1.75.88,2.16,1.13,2.07,1,2.07-.33V22.4c0-1.17.05-4.29,0-5.23C18.81,16.94,15,15,14,14.5,13.65,14.3,12.54,13.64,12.15,13.7Z"/></g></g></svg>