<svg xmlns="http://www.w3.org/2000/svg" viewBox="0 0 46.18 46.18"><defs><style>.cls-1{fill:#0776fb;}</style></defs><title>Asset 2 svg</title><g id="Layer_2" data-name="Layer 2"><g id="Layer_1-2" data-name="Layer 1"><path class="cls-1" d="M23.09,46.18A23.09,23.09,0,1,1,46.18,23.09,23.1,23.1,0,0,1,23.09,46.18m0-44.43A21.34,21.34,0,1,0,44.43,23.09,21.38,21.38,0,0,0,23.09,1.75Z"/><path class="cls-1" d="M25.44,14.37l-1.27,4a24.08,24.08,0,0,1,2.79.52c1.21.37,2.37.87,3.54,1.35a.66.66,0,0,0,.69,0,3.12,3.12,0,0,1,4.18.84,3.07,3.07,0,0,1-.58,4.22.68.68,0,0,0-.24.44c.14,2.55-1.19,4.29-3.12,5.69a12.86,12.86,0,0,1-5.61,2.19,16.14,16.14,0,0,1-9.19-1.07,9.41,9.41,0,0,1-4-3.06,5.64,5.64,0,0,1-1.12-3.57,1.13,1.13,0,0,0-.3-.75,3.11,3.11,0,0,1,3.67-5,.71.71,0,0,0,.8,0,14.42,14.42,0,0,1,6.39-1.73.6.6,0,0,0,.65-.49c.45-1.48.93-2.95,1.4-4.42.23-.72.51-.88,1.24-.71,1.13.26,2.26.52,3.38.8a.7.7,0,0,0,.85-.27,2.61,2.61,0,0,1,4.6,2.14,2.65,2.65,0,0,1-2.45,2.1,2.59,2.59,0,0,1-2.62-1.88.78.78,0,0,0-.68-.64C27.46,14.85,26.48,14.61,25.44,14.37ZM23.07,31c.29,0,.59,0,.88,0a5.26,5.26,0,0,0,3.17-1.13c.33-.28.5-.62.16-1s-.62-.24-1,0a3.71,3.71,0,0,1-1.26.64c-1.85.37-3.69.55-5.32-.74a.52.52,0,0,0-.82.12.89.89,0,0,0,0,.78,2.3,2.3,0,0,0,.81.65A6.32,6.32,0,0,0,23.07,31Zm-3.78-4.64A1.61,1.61,0,0,0,21,24.79a1.63,1.63,0,0,0-1.64-1.71,1.7,1.7,0,0,0-1.73,1.64A1.68,1.68,0,0,0,19.29,26.39Zm7.59,0a1.65,1.65,0,1,0,.06-3.31,1.64,1.64,0,0,0-1.72,1.63A1.62,1.62,0,0,0,26.88,26.39ZM32.72,15a1.1,1.1,0,1,0-2.19,0,1.1,1.1,0,1,0,2.19,0Z"/></g></g></svg>