<svg xmlns="http://www.w3.org/2000/svg" viewBox="0 0 46.18 46.18"><defs><style>.cls-1{fill:#0776fb;}</style></defs><title>Asset 3 svg</title><g id="Layer_2" data-name="Layer 2"><g id="Layer_1-2" data-name="Layer 1"><path class="cls-1" d="M23.09,46.18A23.09,23.09,0,1,1,46.18,23.09,23.1,23.1,0,0,1,23.09,46.18m0-44.43A21.34,21.34,0,1,0,44.43,23.09,21.38,21.38,0,0,0,23.09,1.75Z"/><path class="cls-1" d="M23.53,29.22l-2.84,2.67c-.88.82-1.51.67-1.9-.49-.63-1.86-1.26-3.71-1.85-5.58a1.28,1.28,0,0,0-1-1c-1.52-.42-3-.88-4.52-1.41a1.57,1.57,0,0,1-.9-.86c-.15-.52.35-.76.81-.93q11.1-4.13,22.2-8.26a1.34,1.34,0,0,1,1.11.06,1.33,1.33,0,0,1,.21,1.09C33.68,20.33,32.47,26.14,31.27,32c0,.15-.07.3-.11.45-.29,1.17-1.13,1.5-2.12.8C27.5,32.11,26,31,24.46,29.88Zm-3.94.52.18,0a6.94,6.94,0,0,0,.09-1.06A4.21,4.21,0,0,1,21.75,25c2.87-2.46,5.63-5,8.43-7.57a2.26,2.26,0,0,0,.34-.61c-.2,0-.45-.05-.6,0q-5.78,3.66-11.54,7.37c-.14.09-.31.33-.28.45C18.58,26.4,19.09,28.07,19.59,29.74Z"/></g></g></svg>