<svg xmlns="http://www.w3.org/2000/svg" viewBox="0 0 46.18 46.18"><defs><style>.cls-1{fill:#0776fb;}</style></defs><title>Asset 7 svg</title><g id="Layer_2" data-name="Layer 2"><g id="Layer_1-2" data-name="Layer 1"><path class="cls-1" d="M33.2,14.21a8.14,8.14,0,0,1-2.87,1.11,4.51,4.51,0,0,0-3.27-1.46,4.57,4.57,0,0,0-4.5,4.62,6.41,6.41,0,0,0,.12,1.05,12.65,12.65,0,0,1-9.24-4.79,4.48,4.48,0,0,0-.59,2.34,4.87,4.87,0,0,0,2,3.86,4.15,4.15,0,0,1-2-.58v.06a4.53,4.53,0,0,0,3.62,4.5,3.74,3.74,0,0,1-1.17.18,3.66,3.66,0,0,1-.82-.06,4.59,4.59,0,0,0,4.21,3.22,8.83,8.83,0,0,1-5.55,2A6.29,6.29,0,0,1,12,30.17a12.58,12.58,0,0,0,6.9,2c8.24,0,12.8-7,12.8-13.09v-.59A8.7,8.7,0,0,0,34,16.13a8,8,0,0,1-2.57.7,6.45,6.45,0,0,0,1.81-2.63"/><path class="cls-1" d="M23.09,46.18A23.09,23.09,0,1,1,46.18,23.09,23.1,23.1,0,0,1,23.09,46.18m0-44.43A21.34,21.34,0,1,0,44.43,23.09,21.38,21.38,0,0,0,23.09,1.75Z"/></g></g></svg>