<svg xmlns="http://www.w3.org/2000/svg" viewBox="0 0 46.18 46.18"><defs><style>.cls-1{fill:#0776fb;}</style></defs><title>Asset 4 svg</title><g id="Layer_2" data-name="Layer 2"><g id="Layer_1-2" data-name="Layer 1"><path class="cls-1" d="M23.09,46.18A23.09,23.09,0,1,1,46.18,23.09,23.1,23.1,0,0,1,23.09,46.18m0-44.43A21.34,21.34,0,1,0,44.43,23.09,21.38,21.38,0,0,0,23.09,1.75Z"/><path class="cls-1" d="M22.41,15h2.17l3.05.07,1.31.06,1.83.13a9,9,0,0,1,1.28.18A2.87,2.87,0,0,1,34,16.95a3.64,3.64,0,0,1,.36,1.15c.06.36.11.72.16,1.08a5.2,5.2,0,0,1,.06.66q0,3.23,0,6.46s0,.05,0,.08c0,.25,0,.51-.08.76a9.4,9.4,0,0,1-.26,1.5,2.83,2.83,0,0,1-2.12,2.09,8.28,8.28,0,0,1-1.45.21L29,31.05l-2,.08c-.71,0-1.41,0-2.12,0H21.22l-1.9,0-1.88-.08-1-.06-1-.09a8.88,8.88,0,0,1-1.17-.17A2.86,2.86,0,0,1,12.2,29a4.17,4.17,0,0,1-.28-1.12c-.07-.48-.13-1-.17-1.45s-.08-1-.1-1.54,0-.9,0-1.34c0,0,0,0,0-.06V22.7s0,0,0-.07c0-.19,0-.38,0-.57,0-.93.08-1.87.17-2.8.05-.49.12-1,.22-1.45a3,3,0,0,1,.8-1.54,2.83,2.83,0,0,1,1.44-.81,10.62,10.62,0,0,1,1.38-.19l1.65-.11,2-.08L22.09,15ZM20.85,26.57l6-3.47-6-3.47Z"/></g></g></svg>